<svg xmlns="http://www.w3.org/2000/svg" xmlns:xlink="http://www.w3.org/1999/xlink" version="1.1" width="892.4" height="561.6" viewBox="32.8 18.2 892.4 561.6"><g><g transform="translate(44,81)"><g><g>
<path d="M154,0H0v71h154V0L154,0z" stroke="#000000" stroke-dasharray="none" fill="#FFFFFF"/>
<rect x="6.7" y="3.2" width="140.5" height="64.5" fill="none"/>
<circle fill="none" cx="77" cy="0" r="0.1"/>
<circle fill="none" cx="115.2" cy="0" r="0.1"/>
<circle fill="none" cx="154" cy="17.9" r="0.1"/>
<circle fill="none" cx="154" cy="35.5" r="0.1"/>
<circle fill="none" cx="154" cy="53.1" r="0.1"/>
<circle fill="none" cx="115.2" cy="71" r="0.1"/>
<circle fill="none" cx="77" cy="71" r="0.1"/>
<circle fill="none" cx="38.9" cy="71" r="0.1"/>
<circle fill="none" cx="0" cy="53.1" r="0.1"/>
<circle fill="none" cx="0" cy="35.5" r="0.1"/>
<circle fill="none" cx="0" cy="17.9" r="0.1"/>
<circle fill="none" cx="38.9" cy="0" r="0.1"/>
</g></g><rect stroke="none" stroke-width="1" fill="#FFFFFF" x="0" y="0" width="40" height="20" transform="translate(-11.2,-62.1)"/><path stroke="#000000" fill="none" d="M38.9,0 C46.4,-28.2 7,-13.9 14.5 -42.1"/><text font-family="OpenSansCondensedLight" font-size="14pt" fill="black" transform="translate(-11.2,-62.1)" text-anchor="middle"><tspan x="20" y="16.3">102</tspan></text><rect stroke-width="0" fill="none" width="140.5" height="64.5" transform="translate(6.7,3.2)"/><text font-family="OpenSansCondensedLight" font-size="14pt" fill="black" transform="translate(6.7,3.2)" text-anchor="middle"><tspan x="70.3" y="38.6">INPUT DEVICE</tspan></text><path stroke="#000000" fill="none" transform="translate(6.7,3.2)" d="M 0 0"/></g><g transform="translate(44,377)"><g><g>
<path d="M154,0H0v71h154V0L154,0z" stroke="#000000" stroke-dasharray="none" fill="#FFFFFF"/>
<rect x="6.7" y="3.2" width="140.5" height="64.5" fill="none"/>
<circle fill="none" cx="77" cy="0" r="0.1"/>
<circle fill="none" cx="115.2" cy="0" r="0.1"/>
<circle fill="none" cx="154" cy="17.9" r="0.1"/>
<circle fill="none" cx="154" cy="35.5" r="0.1"/>
<circle fill="none" cx="154" cy="53.1" r="0.1"/>
<circle fill="none" cx="115.2" cy="71" r="0.1"/>
<circle fill="none" cx="77" cy="71" r="0.1"/>
<circle fill="none" cx="38.9" cy="71" r="0.1"/>
<circle fill="none" cx="0" cy="53.1" r="0.1"/>
<circle fill="none" cx="0" cy="35.5" r="0.1"/>
<circle fill="none" cx="0" cy="17.9" r="0.1"/>
<circle fill="none" cx="38.9" cy="0" r="0.1"/>
</g></g><rect stroke="none" stroke-width="1" fill="#FFFFFF" x="0" y="0" width="40" height="20" transform="translate(-11.2,-62.1)"/><path stroke="#000000" fill="none" d="M38.9,0 C46.4,-28.2 7,-13.9 14.5 -42.1"/><text font-family="OpenSansCondensedLight" font-size="14pt" fill="black" transform="translate(-11.2,-62.1)" text-anchor="middle"><tspan x="20" y="16.3">106</tspan></text><rect stroke-width="0" fill="none" width="140.5" height="64.5" transform="translate(6.7,3.2)"/><text font-family="OpenSansCondensedLight" font-size="14pt" fill="black" transform="translate(6.7,3.2)" text-anchor="middle"><tspan x="70.3" y="28.1">COMMUNICATIONS</tspan><tspan x="70.3" y="49.1">INTERFACE</tspan></text><path stroke="#000000" fill="none" transform="translate(6.7,3.2)" d="M 0 0"/></g><g transform="translate(44,225)"><g><g>
<path d="M154,0H0v71h154V0L154,0z" stroke="#000000" stroke-dasharray="none" fill="#FFFFFF"/>
<rect x="6.7" y="3.2" width="140.5" height="64.5" fill="none"/>
<circle fill="none" cx="77" cy="0" r="0.1"/>
<circle fill="none" cx="115.2" cy="0" r="0.1"/>
<circle fill="none" cx="154" cy="17.9" r="0.1"/>
<circle fill="none" cx="154" cy="35.5" r="0.1"/>
<circle fill="none" cx="154" cy="53.1" r="0.1"/>
<circle fill="none" cx="115.2" cy="71" r="0.1"/>
<circle fill="none" cx="77" cy="71" r="0.1"/>
<circle fill="none" cx="38.9" cy="71" r="0.1"/>
<circle fill="none" cx="0" cy="53.1" r="0.1"/>
<circle fill="none" cx="0" cy="35.5" r="0.1"/>
<circle fill="none" cx="0" cy="17.9" r="0.1"/>
<circle fill="none" cx="38.9" cy="0" r="0.1"/>
</g></g><rect stroke="none" stroke-width="1" fill="#FFFFFF" x="0" y="0" width="40" height="20" transform="translate(-11.2,-62.1)"/><path stroke="#000000" fill="none" d="M38.9,0 C46.4,-28.2 7,-13.9 14.5 -42.1"/><text font-family="OpenSansCondensedLight" font-size="14pt" fill="black" transform="translate(-11.2,-62.1)" text-anchor="middle"><tspan x="20" y="16.3">104</tspan></text><rect stroke-width="0" fill="none" width="140.5" height="64.5" transform="translate(6.7,3.2)"/><text font-family="OpenSansCondensedLight" font-size="14pt" fill="black" transform="translate(6.7,3.2)" text-anchor="middle"><tspan x="70.3" y="38.6">OUTPUT DEVICE</tspan></text><path stroke="#000000" fill="none" transform="translate(6.7,3.2)" d="M 0 0"/></g><g transform="translate(220,340.5)"><g><g>
<path d="M654,0H0v13h654V0L654,0z" stroke="#000000" stroke-dasharray="none" fill="#FFFFFF"/>
<rect x="28.6" y="0.6" width="596.8" height="11.8" fill="none"/>
<circle fill="none" cx="327" cy="0" r="0.1"/>
<circle fill="none" cx="489.1" cy="0" r="0.1"/>
<circle fill="none" cx="654" cy="3.3" r="0.1"/>
<circle fill="none" cx="654" cy="6.5" r="0.1"/>
<circle fill="none" cx="654" cy="9.7" r="0.1"/>
<circle fill="none" cx="489.1" cy="13" r="0.1"/>
<circle fill="none" cx="327" cy="13" r="0.1"/>
<circle fill="none" cx="165" cy="13" r="0.1"/>
<circle fill="none" cx="0" cy="9.7" r="0.1"/>
<circle fill="none" cx="0" cy="6.5" r="0.1"/>
<circle fill="none" cx="0" cy="3.3" r="0.1"/>
<circle fill="none" cx="165" cy="0" r="0.1"/>
</g></g><rect stroke="none" stroke-width="0" fill="#FFFFFF" x="0" y="0" width="0" height="0" transform="translate(489,12.9)"/><path stroke="#000000" fill="none" d=""/><text font-family="OpenSansCondensedLight" font-size="14pt" fill="black" transform="translate(489,12.9)"/><rect stroke-width="0" fill="none" width="596.8" height="11.8" transform="translate(28.6,0.6)"/><text font-family="OpenSansCondensedLight" font-size="14pt" fill="black" transform="translate(28.6,0.6)" text-anchor="middle"><tspan x="298.4" y="12.2"> </tspan></text><path stroke="#000000" fill="none" transform="translate(28.6,0.6)" d="M 0 0"/></g><g transform="translate(396,478.5)"><g><g>
<path d="M136,0H0v83h136V0L136,0z" stroke="#000000" stroke-dasharray="none" fill="#FFFFFF"/>
<rect x="5.9" y="3.8" width="124.1" height="75.4" fill="none"/>
<circle fill="none" cx="68" cy="0" r="0.1"/>
<circle fill="none" cx="101.7" cy="0" r="0.1"/>
<circle fill="none" cx="136" cy="20.9" r="0.1"/>
<circle fill="none" cx="136" cy="41.5" r="0.1"/>
<circle fill="none" cx="136" cy="62.1" r="0.1"/>
<circle fill="none" cx="101.7" cy="83" r="0.1"/>
<circle fill="none" cx="68" cy="83" r="0.1"/>
<circle fill="none" cx="34.3" cy="83" r="0.1"/>
<circle fill="none" cx="0" cy="62.1" r="0.1"/>
<circle fill="none" cx="0" cy="41.5" r="0.1"/>
<circle fill="none" cx="0" cy="20.9" r="0.1"/>
<circle fill="none" cx="34.3" cy="0" r="0.1"/>
</g></g><rect stroke="none" stroke-width="1" fill="#FFFFFF" x="0" y="0" width="40" height="20" transform="translate(-80.1,31.4)"/><path stroke="#000000" fill="none" d="M0,41.5 C-17,24.5 -23.1,58.5 -40.1 41.4"/><text font-family="OpenSansCondensedLight" font-size="14pt" fill="black" transform="translate(-80.1,31.4)" text-anchor="middle"><tspan x="20" y="16.3">108</tspan></text><rect stroke-width="0" fill="none" width="124.1" height="75.4" transform="translate(5.9,3.8)"/><text font-family="OpenSansCondensedLight" font-size="14pt" fill="black" transform="translate(5.9,3.8)" text-anchor="middle"><tspan x="62.1" y="44">CACHE</tspan></text><path stroke="#000000" fill="none" transform="translate(5.9,3.8)" d="M 0 0"/></g><g transform="translate(628,478)"><g><g>
<path d="M136,0H0v83h136V0L136,0z" stroke="#000000" stroke-dasharray="none" fill="#FFFFFF"/>
<rect x="5.9" y="3.8" width="124.1" height="75.4" fill="none"/>
<circle fill="none" cx="68" cy="0" r="0.1"/>
<circle fill="none" cx="101.7" cy="0" r="0.1"/>
<circle fill="none" cx="136" cy="20.9" r="0.1"/>
<circle fill="none" cx="136" cy="41.5" r="0.1"/>
<circle fill="none" cx="136" cy="62.1" r="0.1"/>
<circle fill="none" cx="101.7" cy="83" r="0.1"/>
<circle fill="none" cx="68" cy="83" r="0.1"/>
<circle fill="none" cx="34.3" cy="83" r="0.1"/>
<circle fill="none" cx="0" cy="62.1" r="0.1"/>
<circle fill="none" cx="0" cy="41.5" r="0.1"/>
<circle fill="none" cx="0" cy="20.9" r="0.1"/>
<circle fill="none" cx="34.3" cy="0" r="0.1"/>
</g></g><rect stroke="none" stroke-width="1" fill="#FFFFFF" x="0" y="0" width="40" height="20" transform="translate(175.9,31.4)"/><path stroke="#000000" fill="none" d="M136,41.5 C153,58.4 158.9,24.5 175.9 41.4"/><text font-family="OpenSansCondensedLight" font-size="14pt" fill="black" transform="translate(175.9,31.4)" text-anchor="middle"><tspan x="20" y="16.3">110</tspan></text><rect stroke-width="0" fill="none" width="124.1" height="75.4" transform="translate(5.9,3.8)"/><text font-family="OpenSansCondensedLight" font-size="14pt" fill="black" transform="translate(5.9,3.8)" text-anchor="middle"><tspan x="62.1" y="44">PROCESSOR</tspan></text><path stroke="#000000" fill="none" transform="translate(5.9,3.8)" d="M 0 0"/></g><g transform="translate(304,186)"><g><g>
<path d="M125,0H0v74h125V0L125,0z" stroke="#000000" stroke-dasharray="none" fill="#FFFFFF"/>
<rect x="5.5" y="3.4" width="114.1" height="67.3" fill="none"/>
<circle fill="none" cx="62.5" cy="0" r="0.1"/>
<circle fill="none" cx="93.5" cy="0" r="0.1"/>
<circle fill="none" cx="125" cy="18.7" r="0.1"/>
<circle fill="none" cx="125" cy="37" r="0.1"/>
<circle fill="none" cx="125" cy="55.3" r="0.1"/>
<circle fill="none" cx="93.5" cy="74" r="0.1"/>
<circle fill="none" cx="62.5" cy="74" r="0.1"/>
<circle fill="none" cx="31.5" cy="74" r="0.1"/>
<circle fill="none" cx="0" cy="55.3" r="0.1"/>
<circle fill="none" cx="0" cy="37" r="0.1"/>
<circle fill="none" cx="0" cy="18.7" r="0.1"/>
<circle fill="none" cx="31.5" cy="0" r="0.1"/>
</g></g><rect stroke="none" stroke-width="1" fill="#FFFFFF" x="0" y="0" width="40" height="20" transform="translate(42.4,-70.1)"/><path stroke="#000000" fill="none" d="M62.5,0 C83.7,-21.3 41.2,-28.8 62.4 -50.1"/><text font-family="OpenSansCondensedLight" font-size="14pt" fill="black" transform="translate(42.4,-70.1)" text-anchor="middle"><tspan x="20" y="16.3">112</tspan></text><rect stroke-width="0" fill="none" width="114.1" height="67.3" transform="translate(5.5,3.4)"/><text font-family="OpenSansCondensedLight" font-size="14pt" fill="black" transform="translate(5.5,3.4)" text-anchor="middle"><tspan x="57" y="39.9">MEMORY</tspan></text><path stroke="#000000" fill="none" transform="translate(5.5,3.4)" d="M 0 0"/></g><g transform="translate(594,186)"><g><g>
<path d="M125,0H0v74h125V0L125,0z" stroke="#000000" stroke-dasharray="none" fill="#FFFFFF"/>
<rect x="5.5" y="3.4" width="114.1" height="67.3" fill="none"/>
<circle fill="none" cx="62.5" cy="0" r="0.1"/>
<circle fill="none" cx="93.5" cy="0" r="0.1"/>
<circle fill="none" cx="125" cy="18.7" r="0.1"/>
<circle fill="none" cx="125" cy="37" r="0.1"/>
<circle fill="none" cx="125" cy="55.3" r="0.1"/>
<circle fill="none" cx="93.5" cy="74" r="0.1"/>
<circle fill="none" cx="62.5" cy="74" r="0.1"/>
<circle fill="none" cx="31.5" cy="74" r="0.1"/>
<circle fill="none" cx="0" cy="55.3" r="0.1"/>
<circle fill="none" cx="0" cy="37" r="0.1"/>
<circle fill="none" cx="0" cy="18.7" r="0.1"/>
<circle fill="none" cx="31.5" cy="0" r="0.1"/>
</g></g><rect stroke="none" stroke-width="1" fill="#FFFFFF" x="0" y="0" width="40" height="20" transform="translate(42.4,-70.1)"/><path stroke="#000000" fill="none" d="M62.5,0 C83.7,-21.3 41.2,-28.8 62.4 -50.1"/><text font-family="OpenSansCondensedLight" font-size="14pt" fill="black" transform="translate(42.4,-70.1)" text-anchor="middle"><tspan x="20" y="16.3">116</tspan></text><rect stroke-width="0" fill="none" width="114.1" height="67.3" transform="translate(5.5,3.4)"/><text font-family="OpenSansCondensedLight" font-size="14pt" fill="black" transform="translate(5.5,3.4)" text-anchor="middle"><tspan x="57" y="39.9">RAM</tspan></text><path stroke="#000000" fill="none" transform="translate(5.5,3.4)" d="M 0 0"/></g><g transform="translate(450,186)"><g><g>
<path d="M125,0H0v74h125V0L125,0z" stroke="#000000" stroke-dasharray="none" fill="#FFFFFF"/>
<rect x="5.5" y="3.4" width="114.1" height="67.3" fill="none"/>
<circle fill="none" cx="62.5" cy="0" r="0.1"/>
<circle fill="none" cx="93.5" cy="0" r="0.1"/>
<circle fill="none" cx="125" cy="18.7" r="0.1"/>
<circle fill="none" cx="125" cy="37" r="0.1"/>
<circle fill="none" cx="125" cy="55.3" r="0.1"/>
<circle fill="none" cx="93.5" cy="74" r="0.1"/>
<circle fill="none" cx="62.5" cy="74" r="0.1"/>
<circle fill="none" cx="31.5" cy="74" r="0.1"/>
<circle fill="none" cx="0" cy="55.3" r="0.1"/>
<circle fill="none" cx="0" cy="37" r="0.1"/>
<circle fill="none" cx="0" cy="18.7" r="0.1"/>
<circle fill="none" cx="31.5" cy="0" r="0.1"/>
</g></g><rect stroke="none" stroke-width="1" fill="#FFFFFF" x="0" y="0" width="40" height="20" transform="translate(42.4,-70.1)"/><path stroke="#000000" fill="none" d="M62.5,0 C83.7,-21.3 41.2,-28.8 62.4 -50.1"/><text font-family="OpenSansCondensedLight" font-size="14pt" fill="black" transform="translate(42.4,-70.1)" text-anchor="middle"><tspan x="20" y="16.3">114</tspan></text><rect stroke-width="0" fill="none" width="114.1" height="67.3" transform="translate(5.5,3.4)"/><text font-family="OpenSansCondensedLight" font-size="14pt" fill="black" transform="translate(5.5,3.4)" text-anchor="middle"><tspan x="57" y="39.9">ROM</tspan></text><path stroke="#000000" fill="none" transform="translate(5.5,3.4)" d="M 0 0"/></g><g transform="translate(740,27)"><g><g>
<path d="M146,0H0v232h146V0L146,0z" stroke="#000000" stroke-dasharray="none" fill="#FFFFFF"/>
<rect x="6.4" y="10.6" width="133.2" height="210.8" fill="none"/>
<circle fill="none" cx="73" cy="0" r="0.1"/>
<circle fill="none" cx="109.2" cy="0" r="0.1"/>
<circle fill="none" cx="146" cy="58.5" r="0.1"/>
<circle fill="none" cx="146" cy="116" r="0.1"/>
<circle fill="none" cx="146" cy="173.5" r="0.1"/>
<circle fill="none" cx="109.2" cy="232" r="0.1"/>
<circle fill="none" cx="73" cy="232" r="0.1"/>
<circle fill="none" cx="36.8" cy="232" r="0.1"/>
<circle fill="none" cx="0" cy="173.5" r="0.1"/>
<circle fill="none" cx="0" cy="116" r="0.1"/>
<circle fill="none" cx="0" cy="58.5" r="0.1"/>
<circle fill="none" cx="36.8" cy="0" r="0.1"/>
</g></g><rect stroke="none" stroke-width="1" fill="#FFFFFF" x="0" y="0" width="40" height="20" transform="translate(-72.1,18.4)"/><path stroke="#000000" fill="none" d="M0,58.5 C-6.2,35.2 -28.5,61.7 -34.8 38.4"/><text font-family="OpenSansCondensedLight" font-size="14pt" fill="black" transform="translate(-72.1,18.4)" text-anchor="middle"><tspan x="20" y="16.3">118</tspan></text><rect stroke-width="0" fill="none" width="133.2" height="210.8" transform="translate(6.4,10.6)"/><text font-family="OpenSansCondensedLight" font-size="14pt" fill="black" transform="translate(6.4,10.6)" text-anchor="middle"><tspan x="66.6" y="16.8">STORAGE DEVICE</tspan></text><path stroke="#000000" fill="none" transform="translate(6.4,10.6)" d="M 0 0"/></g><g transform="translate(774,113)"><g><g>
<path d="M85,0H0v31h85V0L85,0z" stroke="#000000" stroke-dasharray="none" fill="#FFFFFF"/>
<rect x="3.7" y="1.4" width="77.6" height="28.2" fill="none"/>
<circle fill="none" cx="42.5" cy="0" r="0.1"/>
<circle fill="none" cx="63.6" cy="0" r="0.1"/>
<circle fill="none" cx="85" cy="7.8" r="0.1"/>
<circle fill="none" cx="85" cy="15.5" r="0.1"/>
<circle fill="none" cx="85" cy="23.2" r="0.1"/>
<circle fill="none" cx="63.6" cy="31" r="0.1"/>
<circle fill="none" cx="42.5" cy="31" r="0.1"/>
<circle fill="none" cx="21.4" cy="31" r="0.1"/>
<circle fill="none" cx="0" cy="23.2" r="0.1"/>
<circle fill="none" cx="0" cy="15.5" r="0.1"/>
<circle fill="none" cx="0" cy="7.8" r="0.1"/>
<circle fill="none" cx="21.4" cy="0" r="0.1"/>
</g></g><rect stroke="none" stroke-width="1" fill="#FFFFFF" x="0" y="0" width="40" height="20" transform="translate(-80.1,5.4)"/><path stroke="#000000" fill="none" d="M0,15.5 C-17,-1.5 -23.1,32.5 -40.1 15.4"/><text font-family="OpenSansCondensedLight" font-size="14pt" fill="black" transform="translate(-80.1,5.4)" text-anchor="middle"><tspan x="20" y="16.3">120</tspan></text><rect stroke-width="0" fill="none" width="77.6" height="28.2" transform="translate(3.7,1.4)"/><text font-family="OpenSansCondensedLight" font-size="14pt" fill="black" transform="translate(3.7,1.4)" text-anchor="middle"><tspan x="38.8" y="20.4">MOD 1</tspan></text><path stroke="#000000" fill="none" transform="translate(3.7,1.4)" d="M 0 0"/></g><g transform="translate(772,205)"><g><g>
<path d="M85,0H0v31h85V0L85,0z" stroke="#000000" stroke-dasharray="none" fill="#FFFFFF"/>
<rect x="3.7" y="1.4" width="77.6" height="28.2" fill="none"/>
<circle fill="none" cx="42.5" cy="0" r="0.1"/>
<circle fill="none" cx="63.6" cy="0" r="0.1"/>
<circle fill="none" cx="85" cy="7.8" r="0.1"/>
<circle fill="none" cx="85" cy="15.5" r="0.1"/>
<circle fill="none" cx="85" cy="23.2" r="0.1"/>
<circle fill="none" cx="63.6" cy="31" r="0.1"/>
<circle fill="none" cx="42.5" cy="31" r="0.1"/>
<circle fill="none" cx="21.4" cy="31" r="0.1"/>
<circle fill="none" cx="0" cy="23.2" r="0.1"/>
<circle fill="none" cx="0" cy="15.5" r="0.1"/>
<circle fill="none" cx="0" cy="7.8" r="0.1"/>
<circle fill="none" cx="21.4" cy="0" r="0.1"/>
</g></g><rect stroke="none" stroke-width="1" fill="#FFFFFF" x="0" y="0" width="40" height="20" transform="translate(-28.7,72.9)"/><path stroke="#000000" fill="none" d="M21.4,31 C-6.6,38.5 25.2,65.4 -2.9 72.9"/><text font-family="OpenSansCondensedLight" font-size="14pt" fill="black" transform="translate(-28.7,72.9)" text-anchor="middle"><tspan x="20" y="16.3">124</tspan></text><rect stroke-width="0" fill="none" width="77.6" height="28.2" transform="translate(3.7,1.4)"/><text font-family="OpenSansCondensedLight" font-size="14pt" fill="black" transform="translate(3.7,1.4)" text-anchor="middle"><tspan x="38.8" y="20.4">MOD 3</tspan></text><path stroke="#000000" fill="none" transform="translate(3.7,1.4)" d="M 0 0"/></g><g transform="translate(772,159)"><g><g>
<path d="M85,0H0v31h85V0L85,0z" stroke="#000000" stroke-dasharray="none" fill="#FFFFFF"/>
<rect x="3.7" y="1.4" width="77.6" height="28.2" fill="none"/>
<circle fill="none" cx="42.5" cy="0" r="0.1"/>
<circle fill="none" cx="63.6" cy="0" r="0.1"/>
<circle fill="none" cx="85" cy="7.8" r="0.1"/>
<circle fill="none" cx="85" cy="15.5" r="0.1"/>
<circle fill="none" cx="85" cy="23.2" r="0.1"/>
<circle fill="none" cx="63.6" cy="31" r="0.1"/>
<circle fill="none" cx="42.5" cy="31" r="0.1"/>
<circle fill="none" cx="21.4" cy="31" r="0.1"/>
<circle fill="none" cx="0" cy="23.2" r="0.1"/>
<circle fill="none" cx="0" cy="15.5" r="0.1"/>
<circle fill="none" cx="0" cy="7.8" r="0.1"/>
<circle fill="none" cx="21.4" cy="0" r="0.1"/>
</g></g><rect stroke="none" stroke-width="1" fill="#FFFFFF" x="0" y="0" width="40" height="20" transform="translate(-80.1,5.4)"/><path stroke="#000000" fill="none" d="M0,15.5 C-17,-1.5 -23.1,32.5 -40.1 15.4"/><text font-family="OpenSansCondensedLight" font-size="14pt" fill="black" transform="translate(-80.1,5.4)" text-anchor="middle"><tspan x="20" y="16.3">122</tspan></text><rect stroke-width="0" fill="none" width="77.6" height="28.2" transform="translate(3.7,1.4)"/><text font-family="OpenSansCondensedLight" font-size="14pt" fill="black" transform="translate(3.7,1.4)" text-anchor="middle"><tspan x="38.8" y="20.4">MOD 2</tspan></text><path stroke="#000000" fill="none" transform="translate(3.7,1.4)" d="M 0 0"/></g><g><path stroke="black" stroke-dasharray="none" d="M 206 119 288 119 288 329" fill="none"/><path fill="black" stroke="black" d="M 8 0 L 0 4 L 8 8 z" transform="translate(198,115) scale(1,1) rotate(0)"/><path fill="black" stroke="black" d="M 8 0 L 0 4 L 8 8 z" transform="translate(284,337) scale(1,1) rotate(-90)"/><g><g label-idx="0" cursor="move" transform="translate(288, 183)"><rect fill="white" rx="3" ry="3" x="0" y="0" width="0" height="0"/><text text-anchor="middle" font-size="14pt" font-family="OpenSansCondensedLight" y="0.8em" display="none" xml:space="preserve" transform="translate(0,0)"/></g></g></g><g><path stroke="black" stroke-dasharray="none" d="M 206 257 257 257 257 330" fill="none"/><path fill="black" stroke="black" d="M 8 0 L 0 4 L 8 8 z" transform="translate(198,253) scale(1,1) rotate(0)"/><path fill="black" stroke="black" d="M 8 0 L 0 4 L 8 8 z" transform="translate(253,338) scale(1,1) rotate(-90)"/><g><g label-idx="0" cursor="move" transform="translate(257, 268)"><rect fill="white" rx="3" ry="3" x="0" y="0" width="0" height="0"/><text text-anchor="middle" font-size="14pt" font-family="OpenSansCondensedLight" y="0.8em" display="none" xml:space="preserve" transform="translate(0,0)"/></g></g></g><g><path stroke="black" stroke-dasharray="none" d="M 206 409 331 409 331 361" fill="none"/><path fill="black" stroke="black" d="M 8 0 L 0 4 L 8 8 z" transform="translate(198,405) scale(1,1) rotate(0)"/><path fill="black" stroke="black" d="M 8 0 L 0 4 L 8 8 z" transform="translate(335,353) scale(1,1) rotate(-270)"/><g><g label-idx="0" cursor="move" transform="translate(292.5, 409)"><rect fill="white" rx="3" ry="3" x="0" y="0" width="0" height="0"/><text text-anchor="middle" font-size="14pt" font-family="OpenSansCondensedLight" y="0.8em" display="none" xml:space="preserve" transform="translate(0,0)"/></g></g></g><g><path stroke="black" stroke-dasharray="none" d="M 364 268 364 336" fill="none"/><path fill="black" stroke="black" d="M 8 0 L 0 4 L 8 8 z" transform="translate(368,260) scale(1,1) rotate(-270)"/><path fill="black" stroke="black" d="M 8 0 L 0 4 L 8 8 z" transform="translate(360,344) scale(1,1) rotate(-90)"/><g><g label-idx="0" cursor="move" transform="translate(364, 302)"><rect fill="white" rx="3" ry="3" x="0" y="0" width="0" height="0"/><text text-anchor="middle" font-size="14pt" font-family="OpenSansCondensedLight" y="0.8em" display="none" xml:space="preserve" transform="translate(0,0)"/></g></g></g><g><path stroke="black" stroke-dasharray="none" d="M 513 268 513 337" fill="none"/><path fill="black" stroke="black" d="M 8 0 L 0 4 L 8 8 z" transform="translate(517,260) scale(1,1) rotate(-270)"/><path fill="black" stroke="black" d="M 8 0 L 0 4 L 8 8 z" transform="translate(509,345) scale(1,1) rotate(-90)"/><g><g label-idx="0" cursor="move" transform="translate(513, 302.5)"><rect fill="white" rx="3" ry="3" x="0" y="0" width="0" height="0"/><text text-anchor="middle" font-size="14pt" font-family="OpenSansCondensedLight" y="0.8em" display="none" xml:space="preserve" transform="translate(0,0)"/></g></g></g><g><path stroke="black" stroke-dasharray="none" d="M 660 262 660 329" fill="none"/><path fill="black" stroke="black" d="M 8 0 L 0 4 L 8 8 z" transform="translate(664,254) scale(1,1) rotate(-270)"/><path fill="black" stroke="black" d="M 8 0 L 0 4 L 8 8 z" transform="translate(656,337) scale(1,1) rotate(-90)"/><g><g label-idx="0" cursor="move" transform="translate(660, 295.5)"><rect fill="white" rx="3" ry="3" x="0" y="0" width="0" height="0"/><text text-anchor="middle" font-size="14pt" font-family="OpenSansCondensedLight" y="0.8em" display="none" xml:space="preserve" transform="translate(0,0)"/></g></g></g><g><path stroke="black" stroke-dasharray="none" d="M 819 263 819 331" fill="none"/><path fill="black" stroke="black" d="M 8 0 L 0 4 L 8 8 z" transform="translate(823,255) scale(1,1) rotate(-270)"/><path fill="black" stroke="black" d="M 8 0 L 0 4 L 8 8 z" transform="translate(815,339) scale(1,1) rotate(-90)"/><g><g label-idx="0" cursor="move" transform="translate(819, 297)"><rect fill="white" rx="3" ry="3" x="0" y="0" width="0" height="0"/><text text-anchor="middle" font-size="14pt" font-family="OpenSansCondensedLight" y="0.8em" display="none" xml:space="preserve" transform="translate(0,0)"/></g></g></g><g transform="translate(823,387)"><g><g>
<path d="M56.7,0H0v46.4h56.7V0L56.7,0z" fill="none" stroke="none" stroke-dasharray="none"/>
<rect x="2.5" y="2.1" width="51.7" height="42.2" fill="none"/>
<circle fill="none" cx="28.3" cy="0" r="0.1"/>
<circle fill="none" cx="42.4" cy="0" r="0.1"/>
<circle fill="none" cx="56.7" cy="11.7" r="0.1"/>
<circle fill="none" cx="56.7" cy="23.2" r="0.1"/>
<circle fill="none" cx="56.7" cy="34.7" r="0.1"/>
<circle fill="none" cx="42.4" cy="46.4" r="0.1"/>
<circle fill="none" cx="28.3" cy="46.4" r="0.1"/>
<circle fill="none" cx="14.3" cy="46.4" r="0.1"/>
<circle fill="none" cx="0" cy="34.7" r="0.1"/>
<circle fill="none" cx="0" cy="23.2" r="0.1"/>
<circle fill="none" cx="0" cy="11.7" r="0.1"/>
<circle fill="none" cx="14.3" cy="0" r="0.1"/>
</g></g><rect stroke="none" stroke-width="0" fill="#FFFFFF" x="0" y="0" width="0" height="0" transform="translate(56.6,23.1)"/><path stroke="#000000" fill="none" d=""/><text font-family="OpenSansCondensedLight" font-size="14pt" fill="black" transform="translate(56.6,23.1)"/><rect stroke-width="0" fill="none" width="51.7" height="42.2" transform="translate(2.5,2.1)"/><text font-family="OpenSansCondensedLight" font-size="14pt" fill="black" transform="translate(2.5,2.1)" text-anchor="middle"><tspan x="25.9" y="16.8">BUS</tspan><tspan x="25.9" y="37.8">126</tspan></text><path stroke="#000000" fill="none" transform="translate(2.5,2.1)" d="M 11.9 40 39.9 40"/></g><g><path stroke="black" stroke-dasharray="none" d="M 865 387 874 350" fill="none"/><path fill="black" stroke="black" d="" transform="translate(865,387) scale(1,1) rotate(-76.3)"/><path fill="black" stroke="black" d="" transform="translate(874,350) scale(1,1) rotate(-256.3)"/><g><g label-idx="0" cursor="move" transform="translate(869.5, 368.5)"><rect fill="white" rx="3" ry="3" x="0" y="0" width="0" height="0"/><text text-anchor="middle" font-size="14pt" font-family="OpenSansCondensedLight" y="0.8em" display="none" xml:space="preserve" transform="translate(0,0)"/></g></g></g><g><path stroke="black" d="M 696 470 696 361" fill="none"/><path fill="black" stroke="black" d="M 8 0 L 0 4 L 8 8 z" transform="translate(692,478) scale(1,1) rotate(-90)"/><path fill="black" stroke="black" d="M 8 0 L 0 4 L 8 8 z" transform="translate(700,353) scale(1,1) rotate(-270)"/><g><g label-idx="0" cursor="move" transform="translate(696, 415.5)"><rect fill="white" rx="3" ry="3" x="0" y="0" width="0" height="0"/><text text-anchor="middle" font-size="14pt" font-family="OpenSansCondensedLight" y="0.8em" display="none" xml:space="preserve" transform="translate(0,0)"/></g></g></g><g><path stroke="black" d="M 620 520 540 520" fill="none"/><path fill="black" stroke="black" d="M 8 0 L 0 4 L 8 8 z" transform="translate(628,524) scale(1,1) rotate(-180)"/><path fill="black" stroke="black" d="M 8 0 L 0 4 L 8 8 z" transform="translate(532,516) scale(1,1) rotate(0)"/><g><g label-idx="0" cursor="move" transform="translate(580, 520)"><rect fill="white" rx="3" ry="3" x="0" y="0" width="0" height="0"/><text text-anchor="middle" font-size="14pt" font-family="OpenSansCondensedLight" y="0.8em" display="none" xml:space="preserve" transform="translate(0,0)"/></g></g></g></g><defs/></svg>