<svg xmlns="http://www.w3.org/2000/svg" xmlns:xlink="http://www.w3.org/1999/xlink" version="1.1" width="657.3" height="654.1" viewBox="0 65.2 657.3 654.1"><g><g transform="translate(39,188)"><g><g>
<g stroke-width="0.5" stroke="#000000" stroke-dasharray="none" fill="#FFFFFF">
    <path d="M90.4,0c0.1,0,0.3,0.1,0.3,0.1c0.1,0,0.2,0.1,0.3,0.2c0.1,0.1,0.2,0.2,0.2,0.3c0.1,0.1,0.1,0.2,0.1,0.3l1.4,51.4c0,0.1,0,0.2,-0.1,0.4c-0.1,0.1,-0.1,0.2,-0.2,0.3c-0.1,0.1,-0.2,0.2,-0.3,0.2c-0.1,0.1,-0.2,0.1,-0.3,0.1H7.3c-0.1,0,-0.2,-0.1,-0.3,-0.1c-0.1,-0.1,-0.2,-0.1,-0.3,-0.2c-0.1,-0.1,-0.2,-0.2,-0.2,-0.3c-0.1,-0.1,-0.1,-0.3,-0.1,-0.4l1.3,-51.3c0,-0.1,0.1,-0.2,0.1,-0.3c0.1,-0.1,0.1,-0.2,0.2,-0.3c0.1,-0.1,0.2,-0.1,0.3,-0.2C8.4,0.1,8.5,0,8.6,0H90.4z"/>
    <path d="M91.6,53.4c0.1,0,0.2,0,0.4,0.1s0.2,0.1,0.3,0.1c0.1,0.1,0.2,0.1,0.2,0.1c0.1,0.1,0.1,0.1,0.1,0.2l6.4,25.2c-0.1,0.4,-0.7,0.5,-0.9,0.5H0.9c-0.2,0,-0.3,-0,-0.4,-0.1c-0.4,-0.1,-0.5,-0.4,-0.5,-0.5l6.3,-25.2c0,-0.1,0.1,-0.1,0.1,-0.2c0.1,-0.1,0.1,-0.1,0.2,-0.1c0.1,-0.1,0.2,-0.1,0.3,-0.1c0.1,-0.1,0.3,-0.1,0.4,-0.1L91.6,53.4L91.6,53.4z"/>
    <path d="M99,79.1c-0.1,0.7,-0.1,1.4,-0.2,2.1c-0,0.1,-0.3,0.3,-0.4,0.4c-0.1,0.1,-0.5,0.1,-0.6,0.1l0.2,-2C98.6,79.6,99,79.3,99,79.1z"/>
    <polygon points="98.1,79.6 97.9,81.6 1,81.6 0.9,79.6"/>
    <path d="M1.1,81.6c-0.1,0,-0.3,0,-0.5,-0.1c-0.2,-0.1,-0.4,-0.2,-0.4,-0.2c-0.1,-0.1,-0.1,-0.1,-0.1,-0.2l0,0c-0.1,-0.7,-0.1,-1.4,-0.2,-2.1c0,0.2,0.3,0.5,0.9,0.5"/>
    <path d="M94.3,67.5c0,0.4,-0.3,0.8,-0.7,0.8H6.1c-0.4,0,-0.7,-0.3,-0.7,-0.8l3,-12c0,-0.4,0.3,-0.8,0.7,-0.8h81.5c0.4,0,0.7,0.3,0.7,0.8L94.3,67.5z"/>
    <path d="M8.5,58.5c0.1,0.1,0.1,0.1,0.1,0.1c0.1,0,0.1,0,0.2,0h3.9c0.1,0,0.1,0,0.2,0s0.1,-0.1,0.1,-0.1s0.1,-0.1,0.1,-0.1c0.1,-0.1,0.1,-0.1,0.1,-0.1l0.3,-1.5c0,-0.1,0,-0.1,-0.1,-0.1c-0.1,-0.1,-0.1,-0.1,-0.1,-0.1c-0.1,0,-0.1,-0.1,-0.1,-0.1c-0.1,0,-0.1,0,-0.2,0H9.2c-0.1,0,-0.1,0,-0.2,0c-0.1,0,-0.1,0.1,-0.1,0.1c-0.1,0.1,-0.1,0.1,-0.1,0.1c-0.1,0.1,-0.1,0.1,-0.1,0.1l-0.3,1.5c0,0.1,0,0.1,0,0.1C8.4,58.5,8.4,58.5,8.5,58.5L8.5,58.5zM13.6,58.5c0.1,0.1,0.1,0.1,0.1,0.1c0.1,0,0.1,0,0.2,0h3.9c0.1,0,0.1,0,0.2,0s0.1,-0.1,0.1,-0.1c0.1,-0.1,0.1,-0.1,0.1,-0.1c0.1,-0.1,0.1,-0.1,0.1,-0.1l0.3,-1.5c0,-0.1,0,-0.1,-0.1,-0.1c-0.1,-0.1,-0.1,-0.1,-0.1,-0.1c-0.1,0,-0.1,-0.1,-0.1,-0.1s-0.1,0,-0.2,0H14.3c-0.1,0,-0.1,0,-0.2,0s-0.1,0.1,-0.1,0.1s-0.1,0.1,-0.1,0.1c-0.1,0.1,-0.1,0.1,-0.1,0.1l-0.3,1.5c0,0.1,0,0.1,0.1,0.1C13.6,58.5,13.6,58.5,13.6,58.5L13.6,58.5zM19.2,56.8c-0.1,0,-0.1,0.1,-0.1,0.1s-0.1,0.1,-0.1,0.1c-0.1,0.1,-0.1,0.1,-0.1,0.1l-0.3,1.5c0,0.1,0,0.1,0.1,0.1c0.1,0.1,0.1,0.1,0.1,0.1c0.1,0.1,0.1,0.1,0.1,0.1c0.1,0,0.1,0,0.2,0h3.9c0.1,0,0.1,0,0.2,0s0.1,-0.1,0.1,-0.1c0.1,-0.1,0.1,-0.1,0.1,-0.1c0.1,-0.1,0.1,-0.1,0.1,-0.1l0.2,-1.5c0,-0.1,0,-0.1,-0.1,-0.1c-0.1,-0.1,-0.1,-0.1,-0.1,-0.1c-0.1,0,-0.1,-0.1,-0.1,-0.1s-0.1,0,-0.2,0h-3.9C19.3,56.7,19.3,56.7,19.2,56.8L19.2,56.8zM24.1,58.5c0.1,0,0.1,0,0.2,0h3.9c0.1,0,0.1,0,0.2,0s0.1,-0.1,0.1,-0.1c0.1,-0.1,0.1,-0.1,0.1,-0.1c0.1,-0.1,0.1,-0.1,0.1,-0.1l0.2,-1.5c0,-0.1,0,-0.1,-0.1,-0.1c-0.1,-0.1,-0.1,-0.1,-0.1,-0.1c-0.1,0,-0.1,-0.1,-0.1,-0.1s-0.1,0,-0.2,0h-3.8c-0.1,0,-0.1,0,-0.2,0s-0.1,0.1,-0.1,0.1c-0.1,0.1,-0.1,0.1,-0.1,0.1c-0.1,0.1,-0.1,0.1,-0.1,0.1l-0.2,1.5c0,0.1,0,0.1,0.1,0.1c0.1,0.1,0.1,0.1,0.1,0.1C24,58.5,24.1,58.5,24.1,58.5L24.1,58.5zM33.7,56.8c-0.1,-0.1,-0.1,-0.1,-0.1,-0.1s-0.1,0,-0.2,0h-3.9c-0.1,0,-0.1,0,-0.2,0c-0.1,0,-0.1,0.1,-0.1,0.1c-0.1,0,-0.1,0.1,-0.1,0.1c-0.1,0.1,-0.1,0.1,-0.1,0.1l-0.1,1.5c0,0.1,0,0.1,0.1,0.1c0.1,0.1,0.1,0.1,0.1,0.1c0.1,0.1,0.1,0.1,0.1,0.1s0.1,0,0.2,0h3.9c0.1,0,0.1,0,0.2,0c0.1,0,0.1,-0.1,0.1,-0.1c0.1,-0.1,0.1,-0.1,0.1,-0.1c0.1,-0.1,0.1,-0.1,0.1,-0.1l0.1,-1.5c0,-0.1,0,-0.1,-0.1,-0.1C33.9,56.9,33.9,56.8,33.7,56.8L33.7,56.8zM38.9,56.8c-0.1,0,-0.1,-0.1,-0.1,-0.1s-0.1,0,-0.2,0h-3.9c-0.1,0,-0.1,0,-0.2,0c-0.1,0,-0.1,0.1,-0.1,0.1c-0.1,0,-0.1,0.1,-0.1,0.1c-0.1,0.1,-0.1,0.1,-0.1,0.1l-0.1,1.5c0,0.1,0,0.1,0.1,0.1c0.1,0.1,0.1,0.1,0.1,0.1c0.1,0.1,0.1,0.1,0.1,0.1s0.1,0,0.2,0h3.9c0.1,0,0.1,0,0.2,0c0.1,0,0.1,-0.1,0.1,-0.1c0.1,0,0.1,-0.1,0.1,-0.1c0.1,-0.1,0.1,-0.1,0.1,-0.1l0.1,-1.5c0,-0.1,0,-0.1,-0.1,-0.1C39,56.9,38.9,56.8,38.9,56.8zM44,56.8c-0.1,0,-0.1,-0.1,-0.1,-0.1c-0.1,0,-0.1,0,-0.2,0h-3.9c-0.1,0,-0.1,0,-0.2,0s-0.1,0.1,-0.1,0.1s-0.1,0.1,-0.1,0.1c-0.1,0.1,-0.1,0.1,-0.1,0.1l-0.1,1.5c0,0.1,0,0.1,0.1,0.1c0.1,0.1,0.1,0.1,0.1,0.1c0.1,0.1,0.1,0.1,0.1,0.1c0.1,0,0.1,0,0.2,0h3.9c0.1,0,0.1,0,0.2,0c0.1,0,0.1,-0.1,0.1,-0.1c0.1,-0.1,0.1,-0.1,0.1,-0.1c0.1,-0.1,0.1,-0.1,0.1,-0.1l0.1,-1.5c0,-0.1,0,-0.1,-0.1,-0.1C44.1,56.9,44,56.8,44,56.8L44,56.8zM49.3,56.9c-0.1,-0.1,-0.1,-0.1,-0.1,-0.1c-0.1,0,-0.1,-0.1,-0.1,-0.1c-0.1,0,-0.1,0,-0.2,0h-3.9c-0.1,0,-0.1,0,-0.2,0c-0.1,0,-0.1,0.1,-0.1,0.1s-0.1,0.1,-0.1,0.1c-0.1,0.1,-0.1,0.1,-0.1,0.1l-0.1,1.5c0,0.1,0,0.1,0.1,0.1c0.1,0.1,0.1,0.1,0.1,0.1c0.1,0.1,0.1,0.1,0.1,0.1c0.1,0,0.1,0,0.2,0h3.9c0.1,0,0.1,0,0.2,0s0.1,-0.1,0.1,-0.1c0.1,-0.1,0.1,-0.1,0.1,-0.1c0.1,-0.1,0.1,-0.1,0.1,-0.1v-1.5C49.3,56.9,49.3,56.9,49.3,56.9L49.3,56.9zM54.4,56.9c-0.1,-0.1,-0.1,-0.1,-0.1,-0.1c-0.1,0,-0.1,-0.1,-0.1,-0.1c-0.1,0,-0.1,0,-0.2,0h-3.8c-0.1,0,-0.1,0,-0.2,0s-0.1,0.1,-0.1,0.1c-0.1,0,-0.1,0.1,-0.1,0.1c-0.1,0.1,-0.1,0.1,-0.1,0.1v1.5c0,0.1,0,0.1,0.1,0.1c0.1,0.1,0.1,0.1,0.1,0.1c0.1,0.1,0.1,0.1,0.1,0.1c0.1,0,0.1,0,0.2,0h3.9c0.1,0,0.1,0,0.2,0s0.1,-0.1,0.1,-0.1c0.1,-0.1,0.1,-0.1,0.1,-0.1c0.1,-0.1,0.1,-0.1,0.1,-0.1l-0.1,-1.5C54.4,56.9,54.4,56.9,54.4,56.9L54.4,56.9zM59.6,56.9c-0.1,-0.1,-0.1,-0.1,-0.1,-0.1c-0.1,0,-0.1,-0.1,-0.1,-0.1c-0.1,0,-0.1,0,-0.2,0h-3.9c-0.1,0,-0.1,0,-0.2,0s-0.1,0.1,-0.1,0.1c-0.1,0,-0.1,0.1,-0.1,0.1c-0.1,0.1,-0.1,0.1,-0.1,0.1l0.1,1.5c0,0.1,0,0.1,0.1,0.1c0.1,0.1,0.1,0.1,0.1,0.1c0.1,0.1,0.1,0.1,0.1,0.1c0.1,0,0.1,0,0.2,0h3.9c0.1,0,0.1,0,0.2,0s0.1,-0.1,0.1,-0.1c0.1,-0.1,0.1,-0.1,0.1,-0.1c0.1,-0.1,0.1,-0.1,0.1,-0.1l-0.1,-1.5C59.6,56.9,59.6,56.9,59.6,56.9L59.6,56.9zM64.7,56.9c-0.1,-0.1,-0.1,-0.1,-0.1,-0.1c-0.1,0,-0.1,-0.1,-0.1,-0.1c-0.1,0,-0.1,0,-0.2,0h-3.9c-0.1,0,-0.1,0,-0.2,0s-0.1,0.1,-0.1,0.1c-0.1,0,-0.1,0.1,-0.1,0.1c-0.1,0.1,-0.1,0.1,-0.1,0.1l0.1,1.5c0,0.1,0,0.1,0.1,0.1c0.1,0.1,0.1,0.1,0.1,0.1c0.1,0.1,0.1,0.1,0.1,0.1c0.1,0,0.1,0,0.2,0h3.9c0.1,0,0.1,0,0.2,0s0.1,-0.1,0.1,-0.1c0.1,-0.1,0.1,-0.1,0.1,-0.1c0.1,-0.1,0.1,-0.1,0.1,-0.1l-0.1,-1.5C64.7,56.9,64.7,56.9,64.7,56.9L64.7,56.9zM69.8,56.9c-0.1,-0.1,-0.1,-0.1,-0.1,-0.1c-0.1,-0.1,-0.1,-0.1,-0.1,-0.1c-0.1,0,-0.1,0,-0.2,0h-3.9c-0.1,0,-0.1,0,-0.2,0s-0.1,0.1,-0.1,0.1c-0.1,0,-0.1,0.1,-0.1,0.1c-0.1,0.1,-0.1,0.1,-0.1,0.1l0.2,1.5c0,0.1,0.1,0.1,0.1,0.1c0.1,0.1,0.1,0.1,0.1,0.1c0.1,0.1,0.1,0.1,0.1,0.1c0.1,0,0.1,0,0.2,0h3.9c0.1,0,0.1,0,0.2,0s0.1,-0.1,0.1,-0.1c0.1,-0.1,0.1,-0.1,0.1,-0.1c0.1,-0.1,0.1,-0.1,0.1,-0.1l-0.2,-1.5C69.9,56.9,69.9,56.9,69.8,56.9L69.8,56.9zM74.9,56.9c-0.1,-0.1,-0.1,-0.1,-0.1,-0.1c-0.1,0,-0.1,-0.1,-0.1,-0.1c-0.1,0,-0.1,0,-0.2,0h-3.8c-0.1,0,-0.1,0,-0.2,0s-0.1,0.1,-0.1,0.1s-0.1,0.1,-0.1,0.1c-0.1,0.1,-0.1,0.1,-0.1,0.1l0.2,1.5c0,0.1,0.1,0.1,0.1,0.1c0.1,0.1,0.1,0.1,0.1,0.1c0.1,0.1,0.1,0.1,0.1,0.1c0.1,0,0.1,0,0.2,0h3.9c0.1,0,0.1,0,0.2,0s0.1,-0.1,0.1,-0.1c0.1,-0.1,0.1,-0.1,0.1,-0.1c0.1,-0.1,0.1,-0.1,0.1,-0.1l-0.2,-1.5C75,56.9,74.9,56.9,74.9,56.9L74.9,56.9zM85.3,56.9c-0.1,-0.1,-0.1,-0.1,-0.1,-0.1c-0.1,0,-0.1,-0.1,-0.1,-0.1c-0.1,0,-0.1,0,-0.2,0h-9c-0.1,0,-0.1,0,-0.2,0s-0.1,0.1,-0.1,0.1c-0.1,0.1,-0.1,0.1,-0.1,0.1c-0.1,0.1,-0.1,0.1,-0.1,0.1l0.2,1.5c0,0.1,0.1,0.1,0.1,0.1c0.1,0.1,0.1,0.1,0.1,0.1c0.1,0.1,0.1,0.1,0.1,0.1c0.1,0,0.1,0,0.2,0h9.1c0.1,0,0.1,0,0.2,0s0.1,-0.1,0.1,-0.1c0.1,-0.1,0.1,-0.1,0.1,-0.1c0.1,-0.1,0.1,-0.1,0.1,-0.1l-0.3,-1.5L85.3,56.9L85.3,56.9zM86.3,58.5c0.1,0.1,0.1,0.1,0.1,0.1c0.1,0.1,0.1,0.1,0.1,0.1c0.1,0,0.1,0,0.2,0h3.9c0.1,0,0.1,0,0.2,0c0.1,0,0.1,-0.1,0.1,-0.1c0.1,-0.1,0.1,-0.1,0.1,-0.1c0,-0.1,0.1,-0.1,0,-0.1l-0.3,-1.5c0,-0.1,-0.1,-0.1,-0.1,-0.1s-0.1,-0.1,-0.1,-0.1c-0.1,-0.1,-0.1,-0.1,-0.1,-0.1c-0.1,0,-0.1,0,-0.2,0h-3.9c-0.1,0,-0.1,0,-0.2,0s-0.1,0.1,-0.1,0.1c-0.1,0.1,-0.1,0.1,-0.1,0.1c-0.1,0.1,-0.1,0.1,-0.1,0.1l0.3,1.5C86.2,58.5,86.2,58.5,86.3,58.5zM20,60.7c0.1,0,0.1,-0.1,0.1,-0.1c0.1,-0.1,0.1,-0.1,0.1,-0.1c0.1,-0.1,0.1,-0.1,0.1,-0.1l0.3,-1.5c0,-0.1,0,-0.1,-0.1,-0.1c-0.1,-0.1,-0.1,-0.1,-0.1,-0.1c-0.1,-0.1,-0.1,-0.1,-0.1,-0.1c-0.1,0,-0.1,0,-0.2,0H16.2c-0.1,0,-0.1,0,-0.2,0s-0.1,0.1,-0.1,0.1c-0.1,0.1,-0.1,0.1,-0.1,0.1c-0.1,0.1,-0.1,0.1,-0.1,0.1l-0.3,1.5c0,0.1,0,0.1,0.1,0.1c0.1,0.1,0.1,0.1,0.1,0.1c0.1,0.1,0.1,0.1,0.1,0.1c0.1,0,0.1,0,0.2,0h3.9C19.9,60.8,19.9,60.8,20,60.7zM7.9,60.7C8,60.8,8,60.8,8,60.8s0.1,0,0.2,0h6.2c0.1,0,0.1,0,0.2,0c0.1,0,0.1,-0.1,0.1,-0.1c0.1,-0.1,0.1,-0.1,0.1,-0.1c0.1,-0.1,0.1,-0.1,0.1,-0.1l0.3,-1.5c0,-0.1,0,-0.1,-0.1,-0.1c-0.1,-0.1,-0.1,-0.1,-0.1,-0.1c-0.1,-0.1,-0.1,-0.1,-0.1,-0.1c-0.1,0,-0.1,0,-0.2,0H8.6c-0.1,0,-0.1,0,-0.2,0c-0.1,0,-0.1,0.1,-0.1,0.1c-0.1,0.1,-0.1,0.1,-0.1,0.1c-0.1,0.1,-0.1,0.1,-0.1,0.1l-0.4,1.5c0,0.1,0,0.1,0,0.1C7.9,60.7,7.9,60.7,7.9,60.7L7.9,60.7zM25.2,60.7c0.1,0,0.1,-0.1,0.1,-0.1c0.1,0,0.1,0,0.1,0c0.1,-0.1,0.1,-0.1,0.1,-0.1l0.2,-1.5c0,-0.1,0,-0.1,-0.1,-0.1c-0.1,-0.1,-0.1,-0.1,-0.1,-0.1c-0.1,-0.1,-0.1,-0.1,-0.1,-0.1s-0.1,0,-0.2,0h-3.9c-0.1,0,-0.1,0,-0.2,0s-0.1,0.1,-0.1,0.1c-0.1,0.1,-0.1,0.1,-0.1,0.1c-0.1,0.1,-0.1,0.1,-0.1,0.1l-0.3,1.5c0,0.1,0,0.1,0.1,0.1c0.1,0.1,0.1,0.1,0.1,0.1c0.1,0.1,0.1,0.1,0.1,0.1c0.1,0,0.1,0,0.2,0h3.9C25.1,60.8,25.2,60.8,25.2,60.7L25.2,60.7zM30.5,60.7c0.1,0,0.1,-0.1,0.1,-0.1h0.1c0.1,-0.1,0.1,-0.1,0.1,-0.1l0.2,-1.5c0,-0.1,0,-0.1,-0.1,-0.1c-0.1,-0.1,-0.1,-0.1,-0.1,-0.1s-0.1,-0.1,-0.1,-0.1s-0.1,0,-0.2,0h-3.9c-0.1,0,-0.1,0,-0.2,0c-0.1,0,-0.1,0.1,-0.1,0.1c-0.1,0.1,-0.1,0.1,-0.1,0.1c-0.1,0.1,-0.1,0.1,-0.1,0.1l-0.2,1.5c0,0.1,0,0.1,0.1,0.1c0.1,0.1,0.1,0.1,0.1,0.1c0.1,0.1,0.1,0.1,0.1,0.1s0.1,0,0.2,0h3.9C30.3,60.8,30.5,60.8,30.5,60.7L30.5,60.7zM31.7,58.9c-0.1,0,-0.1,0.1,-0.1,0.1c-0.1,0.1,-0.1,0.1,-0.1,0.1c-0.1,0.1,-0.1,0.1,-0.1,0.1l-0.2,1.5c0,0.1,0,0.1,0.1,0.1c0.1,0.1,0.1,0.1,0.1,0.1c0.1,0.1,0.1,0.1,0.1,0.1c0.1,0,0.1,0,0.2,0h3.9c0.1,0,0.1,0,0.2,0c0.1,0,0.1,-0.1,0.1,-0.1c0.1,-0.1,0.1,-0.1,0.1,-0.1s0.1,-0.1,0.1,-0.1l0.1,-1.5c0,-0.1,0,-0.1,-0.1,-0.1c-0.1,-0.1,-0.1,-0.1,-0.1,-0.1c-0.1,-0.1,-0.1,-0.1,-0.1,-0.1c-0.1,0,-0.1,0,-0.2,0h-3.9C31.8,58.8,31.7,58.8,31.7,58.9L31.7,58.9zM36.9,58.9c-0.1,0,-0.1,0.1,-0.1,0.1c-0.1,0.1,-0.1,0.1,-0.1,0.1c-0.1,0.1,-0.1,0.1,-0.1,0.1l-0.1,1.5c0,0.1,0,0.1,0.1,0.1c0.1,0.1,0.1,0.1,0.1,0.1c0.1,0.1,0.1,0.1,0.1,0.1c0.1,0,0.1,0,0.2,0h3.9c0.1,0,0.1,0,0.2,0c0.1,0,0.1,-0.1,0.1,-0.1c0.1,-0.1,0.1,-0.1,0.1,-0.1s0.1,-0.1,0.1,-0.1l0.1,-1.5c0,-0.1,0,-0.1,-0.1,-0.1c-0.1,-0.1,-0.1,-0.1,-0.1,-0.1c-0.1,-0.1,-0.1,-0.1,-0.1,-0.1c-0.1,0,-0.1,0,-0.2,0h-3.9C37,58.8,36.9,58.8,36.9,58.9L36.9,58.9zM42.1,58.9c-0.1,0,-0.1,0.1,-0.1,0.1c-0.1,0.1,-0.1,0.1,-0.1,0.1c-0.1,0.1,-0.1,0.1,-0.1,0.1l-0.1,1.5c0,0.1,0,0.1,0.1,0.1c0.1,0.1,0.1,0.1,0.1,0.1c0.1,0.1,0.1,0.1,0.1,0.1c0.1,0,0.1,0,0.2,0h3.9c0.1,0,0.1,0,0.2,0c0.1,0,0.1,-0.1,0.1,-0.1c0.1,-0.1,0.1,-0.1,0.1,-0.1c0.1,-0.1,0.1,-0.1,0.1,-0.1l0.1,-1.5c0,-0.1,0,-0.1,-0.1,-0.1c-0.1,-0.1,-0.1,-0.1,-0.1,-0.1c-0.1,-0.1,-0.1,-0.1,-0.1,-0.1c-0.1,0,-0.1,0,-0.2,0h-3.9C42.2,58.8,42.2,58.8,42.1,58.9L42.1,58.9zM47.3,58.9c-0.1,0,-0.1,0.1,-0.1,0.1c-0.1,0.1,-0.1,0.1,-0.1,0.1c-0.1,0.1,-0.1,0.1,-0.1,0.1l-0.1,1.5c0,0.1,0,0.1,0.1,0.1c0.1,0.1,0.1,0.1,0.1,0.1c0.1,0.1,0.1,0.1,0.1,0.1c0.1,0,0.1,0,0.2,0h3.9c0.1,0,0.1,0,0.2,0s0.1,-0.1,0.1,-0.1c0.1,-0.1,0.1,-0.1,0.1,-0.1c0.1,-0.1,0.1,-0.1,0.1,-0.1l-0.1,-1.5c0,-0.1,0,-0.1,-0.1,-0.1c-0.1,-0.1,-0.1,-0.1,-0.1,-0.1c-0.1,-0.1,-0.1,-0.1,-0.1,-0.1c-0.1,0,-0.1,0,-0.2,0H47.3C47.4,58.8,47.3,58.8,47.3,58.9L47.3,58.9zM52.5,58.9c-0.1,0,-0.1,0.1,-0.1,0.1c-0.1,0.1,-0.1,0.1,-0.1,0.1c-0.1,0.1,-0.1,0.1,-0.1,0.1l0.1,1.5c0,0.1,0,0.1,0.1,0.1h0.1c0.1,0.1,0.1,0.1,0.1,0.1c0.1,0,0.1,0,0.2,0H56.5c0.1,0,0.1,0,0.2,0s0.1,-0.1,0.1,-0.1c0.1,-0.1,0.1,-0.1,0.1,-0.1c0.1,-0.1,0.1,-0.1,0.1,-0.1l-0.1,-1.5c0,-0.1,0,-0.1,-0.1,-0.1c-0.1,-0.1,-0.1,-0.1,-0.1,-0.1c-0.1,-0.1,-0.1,-0.1,-0.1,-0.1c-0.1,0,-0.1,0,-0.2,0h-3.9C52.5,58.8,52.5,58.8,52.5,58.9L52.5,58.9zM57.7,58.9c-0.1,0,-0.1,0.1,-0.1,0.1c-0.1,0.1,-0.1,0.1,-0.1,0.1c-0.1,0,-0.1,0.1,-0.1,0.1l0.1,1.5c0,0.1,0,0.1,0.1,0.1c0.1,0.1,0.1,0.1,0.1,0.1c0.1,0.1,0.1,0.1,0.1,0.1c0.1,0,0.1,0,0.2,0h3.9c0.1,0,0.1,0,0.2,0c0.1,0,0.1,-0.1,0.1,-0.1c0.1,-0.1,0.1,-0.1,0.1,-0.1c0.1,-0.1,0.1,-0.1,0.1,-0.1l-0.1,-1.5c0,-0.1,0,-0.1,-0.1,-0.1c-0.1,-0.1,-0.1,-0.1,-0.1,-0.1c-0.1,-0.1,-0.1,-0.1,-0.1,-0.1c-0.1,0,-0.1,0,-0.2,0h-3.9C57.7,58.8,57.7,58.8,57.7,58.9L57.7,58.9zM62.8,58.9c-0.1,0,-0.1,0.1,-0.1,0.1c-0.1,0.1,-0.1,0.1,-0.1,0.1c-0.1,0.1,-0.1,0.1,-0.1,0.1l0.1,1.5c0,0.1,0,0.1,0.1,0.1c0.1,0.1,0.1,0.1,0.1,0.1c0.1,0.1,0.1,0.1,0.1,0.1c0.1,0,0.1,0,0.2,0h3.9c0.1,0,0.1,0,0.2,0s0.1,-0.1,0.1,-0.1c0.1,-0.1,0.1,-0.1,0.1,-0.1c0.1,-0.1,0.1,-0.1,0.1,-0.1l-0.2,-1.5c0,-0.1,-0.1,-0.1,-0.1,-0.1c-0.1,-0.1,-0.1,-0.1,-0.1,-0.1c-0.1,-0.1,-0.1,-0.1,-0.1,-0.1c-0.1,0,-0.1,0,-0.2,0H63C63,58.8,62.9,58.8,62.8,58.9L62.8,58.9zM68.1,58.9c-0.1,0,-0.1,0.1,-0.1,0.1c-0.1,0.1,-0.1,0.1,-0.1,0.1c-0.1,0,-0.1,0.1,-0.1,0.1l0.2,1.5c0,0.1,0.1,0.1,0.1,0.1c0.1,0.1,0.1,0.1,0.1,0.1c0.1,0.1,0.1,0.1,0.1,0.1c0.1,0,0.1,0,0.2,0H72.3c0.1,0,0.1,0,0.2,0s0.1,-0.1,0.1,-0.1c0.1,-0.1,0.1,-0.1,0.1,-0.1c0.1,0,0.1,-0.1,0.1,-0.1l-0.2,-1.5c0,-0.1,-0.1,-0.1,-0.1,-0.1c-0.1,-0.1,-0.1,-0.1,-0.1,-0.1c-0.1,-0.1,-0.1,-0.1,-0.1,-0.1c-0.1,0,-0.1,0,-0.2,0h-3.9C68.2,58.8,68.1,58.8,68.1,58.9L68.1,58.9zM73.3,58.9c-0.1,0,-0.1,0.1,-0.1,0.1c-0.1,0.1,-0.1,0.1,-0.1,0.1c-0.1,0,-0.1,0.1,-0.1,0.1l0.2,1.5c0,0.1,0.1,0.1,0.1,0.1c0.1,0.1,0.1,0.1,0.1,0.1c0.1,0.1,0.1,0.1,0.1,0.1c0.1,0,0.1,0,0.2,0h3.9c0.1,0,0.1,0,0.2,0s0.1,-0.1,0.1,-0.1c0.1,-0.1,0.1,-0.1,0.1,-0.1c0.1,-0.1,0.1,-0.1,0.1,-0.1l-0.3,-1.5c0,-0.1,-0.1,-0.1,-0.1,-0.1c-0.1,-0.1,-0.1,-0.1,-0.1,-0.1c-0.1,-0.1,-0.1,-0.1,-0.1,-0.1c-0.1,0,-0.1,0,-0.2,0h-3.9C73.4,58.8,73.3,58.8,73.3,58.9L73.3,58.9zM85.5,58.9c-0.1,0,-0.1,0,-0.2,0h-6.7c-0.1,0,-0.1,0,-0.2,0s-0.1,0.1,-0.1,0.1c-0.1,0.1,-0.1,0.1,-0.1,0.1c-0.1,0.1,-0.1,0.1,-0.1,0.1l0.2,1.5c0,0.1,0.1,0.1,0.1,0.1c0.1,0.1,0.1,0.1,0.1,0.1c0.1,0.1,0.1,0.1,0.1,0.1c0.1,0,0.1,0,0.2,0h6.7c0.1,0,0.1,0,0.2,0s0.1,-0.1,0.1,-0.1c0.1,-0.1,0.1,-0.1,0.1,-0.1c0.1,-0.1,0.1,-0.1,0.1,-0.1l-0.3,-1.5c0,-0.1,-0.1,-0.1,-0.1,-0.1c-0.1,-0.1,-0.1,-0.1,-0.1,-0.1C85.5,58.9,85.5,58.9,85.5,58.9L85.5,58.9zM16.7,62.9c0.1,0.1,0.1,0.1,0.1,0.1c0.1,0,0.1,0,0.2,0h4c0.1,0,0.1,0,0.2,0s0.1,-0.1,0.1,-0.1c0.1,-0.1,0.1,-0.1,0.1,-0.1c0.1,-0.1,0.1,-0.1,0.1,-0.1l0.3,-1.5c0,-0.1,0,-0.1,-0.1,-0.1c-0.1,-0.1,-0.1,-0.1,-0.1,-0.1c-0.1,-0.1,-0.1,-0.1,-0.1,-0.1c-0.1,0,-0.1,0,-0.2,0H17.2c-0.1,0,-0.1,0,-0.2,0s-0.1,0.1,-0.1,0.1c-0.1,0.1,-0.1,0.1,-0.1,0.1c-0.1,0.1,-0.1,0.1,-0.1,0.1l-0.3,1.5c0,0.1,0,0.1,0.1,0.1S16.6,62.9,16.7,62.9L16.7,62.9zM7.4,62.9c0.1,0.1,0.1,0.1,0.1,0.1c0.1,0,0.1,0,0.2,0h7.7c0.1,0,0.1,0,0.2,0s0.1,-0.1,0.1,-0.1c0.1,-0.1,0.1,-0.1,0.1,-0.1c0.1,-0.1,0.1,-0.1,0.1,-0.1l0.3,-1.5c0,-0.1,0,-0.1,-0.1,-0.1c-0.1,-0.1,-0.1,-0.1,-0.1,-0.1c-0.1,-0.1,-0.1,-0.1,-0.1,-0.1c-0.1,0,-0.1,0,-0.2,0h-7.6c-0.1,0,-0.1,0,-0.2,0c-0.1,0,-0.1,0.1,-0.1,0.1c-0.1,0.1,-0.1,0.1,-0.1,0.1c-0.1,0.1,-0.1,0.1,-0.1,0.1l-0.4,1.5c0,0.1,0,0.1,0,0.1C7.4,62.9,7.4,62.9,7.4,62.9L7.4,62.9zM22,62.9c0.1,0.1,0.1,0.1,0.1,0.1c0.1,0,0.1,0,0.2,0h4c0.1,0,0.1,0,0.2,0c0.1,0,0.1,-0.1,0.1,-0.1c0.1,-0.1,0.1,-0.1,0.1,-0.1c0.1,-0.1,0.1,-0.1,0.1,-0.1l0.2,-1.5c0,-0.1,0,-0.1,-0.1,-0.1c-0.1,-0.1,-0.1,-0.1,-0.1,-0.1c-0.1,-0.1,-0.1,-0.1,-0.1,-0.1s-0.1,0,-0.2,0H22.5c-0.1,0,-0.1,0,-0.2,0c-0.1,0,-0.1,0.1,-0.1,0.1c-0.1,0.1,-0.1,0.1,-0.1,0.1c-0.1,0.1,-0.1,0.1,-0.1,0.1l-0.3,1.5c0,0.1,0,0.1,0.1,0.1C21.9,62.9,21.9,62.9,22,62.9zM27.3,62.9c0.1,0.1,0.1,0.1,0.1,0.1c0.1,0,0.1,0,0.2,0h4c0.1,0,0.1,0,0.2,0c0.1,0,0.1,-0.1,0.1,-0.1c0.1,-0.1,0.1,-0.1,0.1,-0.1c0.1,-0.1,0.1,-0.1,0.1,-0.1l0.2,-1.5c0,-0.1,0,-0.1,-0.1,-0.1c-0.1,-0.1,-0.1,-0.1,-0.1,-0.1c-0.1,-0.1,-0.1,-0.1,-0.1,-0.1c-0.1,0,-0.1,0,-0.2,0h-4c-0.1,0,-0.1,0,-0.2,0c-0.1,0,-0.1,0.1,-0.1,0.1c-0.1,0.1,-0.1,0.1,-0.1,0.1c-0.1,0.1,-0.1,0.1,-0.1,0.1l-0.2,1.5c0,0.1,0,0.1,0.1,0.1C27.2,62.9,27.3,62.9,27.3,62.9L27.3,62.9zM37,62.9c0.1,0,0.1,-0.1,0.1,-0.1c0.1,-0.1,0.1,-0.1,0.1,-0.1c0.1,-0.1,0.1,-0.1,0.1,-0.1l0.1,-1.5c0,-0.1,0,-0.1,-0.1,-0.1c-0.1,-0.1,-0.1,-0.1,-0.1,-0.1c-0.1,-0.1,-0.1,-0.1,-0.1,-0.1c-0.1,0,-0.1,0,-0.2,0h-4c-0.1,0,-0.1,0,-0.2,0s-0.1,0.1,-0.1,0.1c-0.1,0.1,-0.1,0.1,-0.1,0.1c-0.1,0.1,-0.1,0.1,-0.1,0.1l-0.2,1.5c0,0.1,0,0.1,0.1,0.1c0.1,0.1,0.1,0.1,0.1,0.1c0.1,0.1,0.1,0.1,0.1,0.1c0.1,0,0.1,0,0.2,0h4C36.9,63,37,63,37,62.9zM42.4,62.9c0.1,0,0.1,-0.1,0.1,-0.1c0.1,-0.1,0.1,-0.1,0.1,-0.1c0.1,-0.1,0.1,-0.1,0.1,-0.1l0.1,-1.5c0,-0.1,0,-0.1,-0.1,-0.1c-0.1,-0.1,-0.1,-0.1,-0.1,-0.1c-0.1,-0.1,-0.1,-0.1,-0.1,-0.1c-0.1,0,-0.1,0,-0.2,0h-4c-0.1,0,-0.1,0,-0.2,0c-0.1,0,-0.1,0.1,-0.1,0.1c-0.1,0.1,-0.1,0.1,-0.1,0.1c-0.1,0.1,-0.1,0.1,-0.1,0.1l-0.1,1.5c0,0.1,0,0.1,0.1,0.1c0.1,0.1,0.1,0.1,0.1,0.1c0.1,0.1,0.1,0.1,0.1,0.1c0.1,0,0.1,0,0.2,0H42.1C42.3,63,42.3,63,42.4,62.9L42.4,62.9zM47.7,62.9c0.1,0,0.1,-0.1,0.1,-0.1c0.1,-0.1,0.1,-0.1,0.1,-0.1c0.1,-0.1,0.1,-0.1,0.1,-0.1v-1.5c0,-0.1,0,-0.1,-0.1,-0.1c-0.1,-0.1,-0.1,-0.1,-0.1,-0.1c-0.1,-0.1,-0.1,-0.1,-0.1,-0.1c-0.1,0,-0.1,0,-0.2,0H43.5c-0.1,0,-0.1,0,-0.2,0c-0.1,0,-0.1,0.1,-0.1,0.1c-0.1,0.1,-0.1,0.1,-0.1,0.1c-0.1,0.1,-0.1,0.1,-0.1,0.1l-0.1,1.5c0,0.1,0,0.1,0.1,0.1c0.1,0.1,0.1,0.1,0.1,0.1c0.1,0.1,0.1,0.1,0.1,0.1c0.1,0,0.1,0,0.2,0h4C47.6,63,47.7,63,47.7,62.9L47.7,62.9zM53,62.9c0.1,0,0.1,-0.1,0.1,-0.1c0.1,-0.1,0.1,-0.1,0.1,-0.1c0.1,-0.1,0.1,-0.1,0.1,-0.1l-0.1,-1.5c0,-0.1,0,-0.1,-0.1,-0.1c-0.1,-0.1,-0.1,-0.1,-0.1,-0.1c-0.1,-0.1,-0.1,-0.1,-0.1,-0.1c-0.1,0,-0.1,0,-0.2,0h-4c-0.1,0,-0.1,0,-0.2,0s-0.1,0.1,-0.1,0.1c-0.1,0.1,-0.1,0.1,-0.1,0.1c-0.1,0.1,-0.1,0.1,-0.1,0.1v1.5c0,0.1,0,0.1,0.1,0.1c0.1,0.1,0.1,0.1,0.1,0.1c0.1,0.1,0.1,0.1,0.1,0.1c0.1,0,0.1,0,0.2,0h4C52.9,63,52.9,63,53,62.9L53,62.9zM58.3,62.9c0.1,0,0.1,-0.1,0.1,-0.1c0.1,-0.1,0.1,-0.1,0.1,-0.1c0.1,-0.1,0.1,-0.1,0.1,-0.1l-0.1,-1.5c0,-0.1,0,-0.1,-0.1,-0.1c-0.1,-0.1,-0.1,-0.1,-0.1,-0.1c-0.1,-0.1,-0.1,-0.1,-0.1,-0.1c-0.1,0,-0.1,0,-0.2,0h-4c-0.1,0,-0.1,0,-0.2,0s-0.1,0.1,-0.1,0.1c-0.1,0.1,-0.1,0.1,-0.1,0.1c-0.1,0.1,-0.1,0.1,-0.1,0.1l0.1,1.5c0,0.1,0,0.1,0.1,0.1c0.1,0.1,0.1,0.1,0.1,0.1c0.1,0.1,0.1,0.1,0.1,0.1c0.1,0,0.1,0,0.2,0h4C58.2,63,58.3,63,58.3,62.9L58.3,62.9zM63.6,62.9c0.1,0,0.1,-0.1,0.1,-0.1c0.1,-0.1,0.1,-0.1,0.1,-0.1c0.1,-0.1,0.1,-0.1,0.1,-0.1l-0.1,-1.5c0,-0.1,0,-0.1,-0.1,-0.1c-0.1,-0.1,-0.1,-0.1,-0.1,-0.1c-0.1,-0.1,-0.1,-0.1,-0.1,-0.1c-0.1,0,-0.1,0,-0.2,0h-4c-0.1,0,-0.1,0,-0.2,0s-0.1,0.1,-0.1,0.1c-0.1,0.1,-0.1,0.1,-0.1,0.1c-0.1,0.1,-0.1,0.1,-0.1,0.1l0.1,1.5c0,0.1,0,0.1,0.1,0.1c0.1,0.1,0.1,0.1,0.1,0.1c0.1,0.1,0.1,0.1,0.1,0.1c0.1,0,0.1,0,0.2,0H63.5C63.5,63,63.6,63,63.6,62.9zM68.9,62.9c0.1,0,0.1,-0.1,0.1,-0.1c0.1,-0.1,0.1,-0.1,0.1,-0.1c0.1,-0.1,0.1,-0.1,0.1,-0.1l-0.2,-1.5c0,-0.1,-0.1,-0.1,-0.1,-0.1c-0.1,-0.1,-0.1,-0.1,-0.1,-0.1c-0.1,-0.1,-0.1,-0.1,-0.1,-0.1c-0.1,0,-0.1,0,-0.2,0h-4c-0.1,0,-0.1,0,-0.2,0s-0.1,0.1,-0.1,0.1c-0.1,0.1,-0.1,0.1,-0.1,0.1c-0.1,0.1,-0.1,0.1,-0.1,0.1l0.1,1.5c0,0.1,0.1,0.1,0.1,0.1c0.1,0.1,0.1,0.1,0.1,0.1c0.1,0.1,0.1,0.1,0.1,0.1c0.1,0,0.1,0,0.2,0h4C68.9,63,68.9,63,68.9,62.9L68.9,62.9zM74.3,62.9c0.1,0,0.1,-0.1,0.1,-0.1c0.1,-0.1,0.1,-0.1,0.1,-0.1c0.1,-0.1,0.1,-0.1,0.1,-0.1l-0.2,-1.5c0,-0.1,-0.1,-0.1,-0.1,-0.1c-0.1,-0.1,-0.1,-0.1,-0.1,-0.1c-0.1,-0.1,-0.1,-0.1,-0.1,-0.1c-0.1,0,-0.1,0,-0.2,0h-4c-0.1,0,-0.1,0,-0.2,0s-0.1,0.1,-0.1,0.1c-0.1,0.1,-0.1,0.1,-0.1,0.1c-0.1,0.1,-0.1,0.1,-0.1,0.1l0.2,1.5c0,0.1,0.1,0.1,0.1,0.1c0.1,0.1,0.1,0.1,0.1,0.1c0.1,0.1,0.1,0.1,0.1,0.1c0.1,0,0.1,0,0.2,0H74.1C74.2,63,74.2,63,74.3,62.9L74.3,62.9zM86.4,62.9c0.1,0,0.1,-0.1,0.1,-0.1c0.1,-0.1,0.1,-0.1,0.1,-0.1c0.1,-0.1,0.1,-0.1,0.1,-0.1l-0.4,-1.5c0,-0.1,-0.1,-0.1,-0.1,-0.1c-0.1,-0.1,-0.1,-0.1,-0.1,-0.1c-0.1,-0.1,-0.1,-0.1,-0.1,-0.1c-0.1,0,-0.1,0,-0.2,0h-10.6c-0.1,0,-0.1,0,-0.2,0s-0.1,0.1,-0.1,0.1c-0.1,0.1,-0.1,0.1,-0.1,0.1c-0.1,0.1,-0.1,0.1,-0.1,0.1l0.2,1.5c0,0.1,0.1,0.1,0.1,0.1c0.1,0.1,0.1,0.1,0.1,0.1c0.1,0.1,0.1,0.1,0.1,0.1c0.1,0,0.1,0,0.2,0h10.7C86.2,63,86.3,63,86.4,62.9L86.4,62.9zM24.4,63.4c-0.1,-0.1,-0.1,-0.1,-0.1,-0.1c-0.1,-0.1,-0.1,-0.1,-0.1,-0.1s-0.1,0,-0.2,0h-4c-0.1,0,-0.1,0,-0.2,0s-0.1,0.1,-0.1,0.1c-0.1,0.1,-0.1,0.1,-0.1,0.1c-0.1,0,-0.1,0.1,-0.1,0.1l-0.3,1.6c0,0.1,0,0.1,0.1,0.1c0.1,0.1,0.1,0.1,0.1,0.1c0.1,0.1,0.1,0.1,0.1,0.1c0.1,0,0.1,0,0.2,0h4.1c0.1,0,0.1,0,0.2,0c0.1,0,0.1,-0.1,0.1,-0.1c0.1,-0.1,0.1,-0.1,0.1,-0.1c0.1,-0.1,0.1,-0.1,0.1,-0.1l0.2,-1.6C24.4,63.4,24.4,63.4,24.4,63.4zM18.7,65l0.3,-1.6c0,-0.1,0,-0.1,-0.1,-0.1c-0.1,-0.1,-0.1,-0.1,-0.1,-0.1c-0.1,-0.1,-0.1,-0.1,-0.1,-0.1c-0.1,0,-0.1,0,-0.2,0H7.7c-0.1,0,-0.1,0,-0.2,0s-0.1,0.1,-0.2,0.1c-0.1,0.1,-0.1,0.1,-0.1,0.1c-0.1,0.1,-0.1,0.1,-0.1,0.1l-0.4,1.6c0,0.1,0,0.1,0,0.1c0,0.1,0.1,0.1,0.1,0.1c0.1,0.1,0.1,0.1,0.1,0.1s0.1,0,0.2,0h11c0.1,0,0.1,0,0.2,0s0.1,-0.1,0.2,-0.1c0.1,-0.1,0.1,-0.1,0.1,-0.1C18.7,65.1,18.7,65,18.7,65L18.7,65zM29.7,63.3c-0.1,-0.1,-0.1,-0.1,-0.1,-0.1c-0.1,0,-0.1,0,-0.2,0h-4c-0.1,0,-0.1,0,-0.2,0c-0.1,0,-0.1,0.1,-0.1,0.1c-0.1,0.1,-0.1,0.1,-0.1,0.1c-0.1,0.1,-0.1,0.1,-0.1,0.1l-0.2,1.6c0,0.1,0,0.1,0.1,0.1c0.1,0.1,0.1,0.1,0.1,0.1c0.1,0.1,0.1,0.1,0.1,0.1c0.1,0,0.1,0,0.2,0h4.1c0.1,0,0.1,0,0.2,0c0.1,0,0.1,-0.1,0.1,-0.1c0.1,-0.1,0.1,-0.1,0.1,-0.1c0.1,-0.1,0.1,-0.1,0.1,-0.1l0.2,-1.6c0,-0.1,0,-0.1,-0.1,-0.1C29.7,63.3,29.7,63.3,29.7,63.3L29.7,63.3zM23.6,65.6c-0.1,-0.1,-0.1,-0.1,-0.1,-0.1c-0.1,0,-0.1,0,-0.2,0h-4c-0.1,0,-0.1,0,-0.2,0c-0.1,0,-0.1,0.1,-0.2,0.1c-0.1,0.1,-0.1,0.1,-0.1,0.1c-0.1,0.1,-0.1,0.1,-0.1,0.1l-0.3,1.7c0,0.1,0,0.1,0.1,0.1c0.1,0.1,0.1,0.1,0.1,0.1c0.1,0.1,0.1,0.1,0.1,0.1c0.1,0,0.1,0,0.2,0h4.1c0.1,0,0.1,0,0.2,0c0.1,0,0.1,-0.1,0.2,-0.1c0.1,-0.1,0.1,-0.1,0.1,-0.1c0.1,-0.1,0.1,-0.1,0.1,-0.1l0.3,-1.7c0,-0.1,0,-0.1,-0.1,-0.1C23.7,65.6,23.6,65.6,23.6,65.6L23.6,65.6zM17.9,65.6c-0.1,-0.1,-0.1,-0.1,-0.1,-0.1c-0.1,0,-0.1,0,-0.2,0H13.6c-0.1,0,-0.1,0,-0.2,0c-0.1,0,-0.1,0.1,-0.2,0.1c-0.1,0.1,-0.1,0.1,-0.1,0.1c-0.1,0.1,-0.1,0.1,-0.1,0.1l-0.3,1.7c0,0.1,0,0.1,0.1,0.1c0.1,0.1,0.1,0.1,0.1,0.1c0.1,0.1,0.1,0.1,0.1,0.1c0.1,0,0.1,0,0.2,0h4.1c0.1,0,0.1,0,0.2,0c0.1,0,0.1,-0.1,0.2,-0.1c0.1,-0.1,0.1,-0.1,0.1,-0.1c0.1,-0.1,0.1,-0.1,0.1,-0.1l0.3,-1.7c0,-0.1,0,-0.1,-0.1,-0.1C18,65.6,18,65.6,17.9,65.6zM29.2,65.6c-0.1,-0.1,-0.1,-0.1,-0.1,-0.1c-0.1,0,-0.1,0,-0.2,0h-4.1c-0.1,0,-0.1,0,-0.2,0c-0.1,0,-0.1,0.1,-0.1,0.1c-0.1,0.1,-0.1,0.1,-0.1,0.1c-0.1,0.1,-0.1,0.1,-0.1,0.1l-0.2,1.7c0,0.1,0,0.1,0.1,0.1c0.1,0.1,0.1,0.1,0.1,0.1c0.1,0.1,0.1,0.1,0.1,0.1c0.1,0,0.1,0,0.2,0h4.1c0.1,0,0.1,0,0.2,0c0.1,0,0.1,-0.1,0.1,-0.1c0.1,-0.1,0.1,-0.1,0.1,-0.1c0.1,-0.1,0.1,-0.1,0.1,-0.1l0.2,-1.7c0,-0.1,0,-0.1,-0.1,-0.1C29.3,65.6,29.3,65.6,29.2,65.6L29.2,65.6zM30.3,65.1c0.1,0.1,0.1,0.1,0.1,0.1c0.1,0,0.1,0,0.2,0h4c0.1,0,0.1,0,0.2,0c0.1,0,0.1,-0.1,0.1,-0.1c0.1,-0.1,0.1,-0.1,0.1,-0.1c0.1,-0.1,0.1,-0.1,0.1,-0.1l0.1,-1.6c0,-0.1,0,-0.1,-0.1,-0.1c-0.1,-0.1,-0.1,-0.1,-0.1,-0.1c-0.1,-0.1,-0.1,-0.1,-0.1,-0.1c-0.1,0,-0.1,0,-0.2,0h-4c-0.1,0,-0.1,0,-0.2,0c-0.1,0,-0.1,0.1,-0.1,0.1c-0.1,0.1,-0.1,0.1,-0.1,0.1c-0.1,0.1,-0.1,0.1,-0.1,0.1l-0.2,1.6c0,0.1,0,0.1,0.1,0.1C30.1,65.1,30.2,65.1,30.3,65.1L30.3,65.1zM35.6,65.1c0.1,0.1,0.1,0.1,0.1,0.1c0.1,0,0.1,0,0.2,0h4.1c0.1,0,0.1,0,0.2,0c0.1,0,0.1,-0.1,0.1,-0.1c0.1,-0.1,0.1,-0.1,0.1,-0.1c0.1,-0.1,0.1,-0.1,0.1,-0.1l0.1,-1.6c0,-0.1,0,-0.1,-0.1,-0.1c-0.1,-0.1,-0.1,-0.1,-0.1,-0.1s-0.1,-0.1,-0.1,-0.1c-0.1,0,-0.1,0,-0.2,0h-4c-0.1,0,-0.1,0,-0.2,0c-0.1,0,-0.1,0.1,-0.1,0.1c-0.1,0.1,-0.1,0.1,-0.1,0.1c-0.1,0.1,-0.1,0.1,-0.1,0.1l-0.1,1.6c0,0.1,0,0.1,0.1,0.1C35.6,65.1,35.6,65.1,35.6,65.1L35.6,65.1zM41,65.1c0.1,0.1,0.1,0.1,0.1,0.1c0.1,0,0.1,0,0.2,0h4.1c0.1,0,0.1,0,0.2,0s0.1,-0.1,0.1,-0.1c0.1,-0.1,0.1,-0.1,0.1,-0.1c0.1,-0.1,0.1,-0.1,0.1,-0.1l0.1,-1.6c0,-0.1,0,-0.1,-0.1,-0.1c-0.1,-0.1,-0.1,-0.1,-0.1,-0.1c-0.1,-0.1,-0.1,-0.1,-0.1,-0.1c-0.1,0,-0.1,0,-0.2,0h-4c-0.1,0,-0.1,0,-0.2,0c-0.1,0,-0.1,0.1,-0.1,0.1c-0.1,0.1,-0.1,0.1,-0.1,0.1c-0.1,0.1,-0.1,0.1,-0.1,0.1l-0.1,1.6c0,0.1,0,0.1,0.1,0.1C40.9,65.1,40.9,65.1,41,65.1zM46.4,65.1c0.1,0.1,0.1,0.1,0.1,0.1c0.1,0,0.1,0,0.2,0h4.1c0.1,0,0.1,0,0.2,0s0.1,-0.1,0.1,-0.1c0.1,-0.1,0.1,-0.1,0.1,-0.1c0.1,-0.1,0.1,-0.1,0.1,-0.1l-0.1,-1.6c0,-0.1,0,-0.1,-0.1,-0.1c-0.1,-0.1,-0.1,-0.1,-0.1,-0.1c-0.1,-0.1,-0.1,-0.1,-0.1,-0.1c-0.1,0,-0.1,0,-0.2,0h-4c-0.1,0,-0.1,0,-0.2,0s-0.1,0.1,-0.1,0.1c-0.1,0.1,-0.1,0.1,-0.1,0.1c-0.1,0.1,-0.1,0.1,-0.1,0.1l-0.1,1.6c0,0.1,0,0.1,0.1,0.1S46.3,65.1,46.4,65.1L46.4,65.1zM51.7,65.1c0.1,0.1,0.1,0.1,0.1,0.1c0,0.1,0.1,0.1,0.1,0.1c0.1,0,0.1,0,0.2,0h4.1c0.1,0,0.1,0,0.2,0s0.1,-0.1,0.1,-0.1c0.1,-0.1,0.1,-0.1,0.1,-0.1c0.1,-0.1,0.1,-0.1,0.1,-0.1l-0.1,-1.6c0,-0.1,0,-0.1,-0.1,-0.1c-0.1,-0.1,-0.1,-0.1,-0.1,-0.1c-0.1,-0.1,-0.1,-0.1,-0.1,-0.1c-0.1,0,-0.1,0,-0.2,0h-4c-0.1,0,-0.1,0,-0.2,0s-0.1,0.1,-0.1,0.1c-0.1,0.1,-0.1,0.1,-0.1,0.1c-0.1,0.1,-0.1,0.1,-0.1,0.1l0.1,1.6C51.6,65,51.7,65.1,51.7,65.1L51.7,65.1zM57.1,65.1c0.1,0.1,0.1,0.1,0.1,0.1c0.1,0.1,0.1,0.1,0.1,0.1c0.1,0,0.1,0,0.2,0h4c0.1,0,0.1,0,0.2,0s0.1,-0.1,0.1,-0.1c0.1,-0.1,0.1,-0.1,0.1,-0.1c0.1,-0.1,0.1,-0.1,0.1,-0.1l-0.1,-1.6c0,-0.1,0,-0.1,-0.1,-0.1c-0.1,-0.1,-0.1,-0.1,-0.1,-0.1c-0.1,-0.1,-0.1,-0.1,-0.1,-0.1c-0.1,0,-0.1,0,-0.2,0h-4c-0.1,0,-0.1,0,-0.2,0s-0.1,0.1,-0.1,0.1c-0.1,0.1,-0.1,0.1,-0.1,0.1c-0.1,0.1,-0.1,0.1,-0.1,0.1l0.1,1.6C57,65,57,65.1,57.1,65.1L57.1,65.1L57.1,65.1zM62.4,65.1c0.1,0.1,0.1,0.1,0.1,0.1c0.1,0.1,0.1,0.1,0.1,0.1c0.1,0,0.1,0,0.2,0h4.1c0.1,0,0.1,0,0.2,0s0.1,-0.1,0.1,-0.1c0.1,-0.1,0.1,-0.1,0.1,-0.1c0.1,-0.1,0.1,-0.1,0.1,-0.1l-0.2,-1.6c0,-0.1,-0.1,-0.1,-0.1,-0.1c-0.1,-0.1,-0.1,-0.1,-0.1,-0.1c-0.1,-0.1,-0.1,-0.1,-0.1,-0.1c-0.1,0,-0.1,0,-0.2,0h-4c-0.1,0,-0.1,0,-0.2,0s-0.1,0.1,-0.1,0.1s-0.1,0.1,-0.1,0.1c-0.1,0.1,-0.1,0.1,-0.1,0.1l0.1,1.6C62.4,65,62.4,65.1,62.4,65.1zM67.8,65.1c0.1,0.1,0.1,0.1,0.1,0.1c0.1,0.1,0.1,0.1,0.1,0.1c0.1,0,0.1,0,0.2,0h4c0.1,0,0.1,0,0.2,0s0.1,-0.1,0.1,-0.1c0.1,-0.1,0.1,-0.1,0.1,-0.1c0.1,-0.1,0.1,-0.1,0.1,-0.1l-0.2,-1.6c0,-0.1,-0.1,-0.1,-0.1,-0.1c-0.1,-0.1,-0.1,-0.1,-0.1,-0.1c-0.1,-0.1,-0.1,-0.1,-0.1,-0.1c-0.1,0,-0.1,0,-0.2,0h-4c-0.1,0,-0.1,0,-0.2,0s-0.1,0.1,-0.1,0.1c-0.1,0.1,-0.1,0.1,-0.1,0.1c-0.1,0.1,-0.1,0.1,-0.1,0.1l0.2,1.6C67.8,65,67.8,65.1,67.8,65.1L67.8,65.1zM73.3,65.1c0.1,0.1,0.1,0.1,0.1,0.1c0.1,0.1,0.1,0.1,0.1,0.1c0.1,0,0.1,0,0.2,0h7.4c0.1,0,0.1,0,0.2,0s0.1,-0.1,0.1,-0.1c0.1,0,0.1,-0.1,0.1,-0.1c0.1,-0.1,0.1,-0.1,0.1,-0.1l-0.3,-1.6c0,-0.1,-0.1,-0.1,-0.1,-0.1c-0.1,-0.1,-0.1,-0.1,-0.1,-0.1c-0.1,-0.1,-0.1,-0.1,-0.1,-0.1c-0.1,0,-0.1,0,-0.2,0h-7.4c-0.1,0,-0.1,0,-0.2,0s-0.1,0.1,-0.1,0.1c-0.1,0.1,-0.1,0.1,-0.1,0.1c-0.1,0.1,-0.1,0.1,-0.1,0.1l0.2,1.6C73.2,65,73.2,65.1,73.3,65.1L73.3,65.1zM90.7,58.8h-3.9c-0.1,0,-0.1,0,-0.2,0s-0.1,0.1,-0.1,0.1c-0.1,0.1,-0.1,0.1,-0.1,0.1c-0.1,0.1,-0.1,0.1,-0.1,0.1l0.3,1.5c0,0.1,0.1,0.1,0.1,0.1c0.1,0.1,0.1,0.1,0.1,0.1c0.1,0.1,0.1,0.1,0.1,0.1c0.1,0,0.1,0,0.2,0h3.9c0.1,0,0.1,0,0.2,0c0.1,0,0.1,-0.1,0.1,-0.1c0.1,-0.1,0.1,-0.1,0.1,-0.1c0,-0.1,0.1,-0.1,0,-0.1l-0.4,-1.5c0,-0.1,-0.1,-0.1,-0.1,-0.1c-0.1,-0.1,-0.1,-0.1,-0.1,-0.1c-0.1,-0.1,-0.1,-0.1,-0.1,-0.1S90.7,58.8,90.7,58.8L90.7,58.8zM91.3,61.1c-0.1,0,-0.1,0,-0.2,0h-4c-0.1,0,-0.1,0,-0.2,0c-0.1,0,-0.1,0.1,-0.1,0.1c-0.1,0.1,-0.1,0.1,-0.1,0.1c-0.1,0.1,-0.1,0.1,-0.1,0.1l0.3,1.5c0,0.1,0.1,0.1,0.1,0.1c0.1,0.1,0.1,0.1,0.1,0.1c0.1,0.1,0.1,0.1,0.2,0.1s0.1,0,0.2,0h4c0.1,0,0.1,0,0.2,0c0.1,0,0.1,-0.1,0.1,-0.1c0.1,-0.1,0.1,-0.1,0.1,-0.1c0.1,-0.1,0.1,-0.1,0,-0.1l-0.4,-1.5c0,-0.1,-0.1,-0.1,-0.1,-0.1c-0.1,-0.1,-0.1,-0.1,-0.1,-0.1C91.3,61.1,91.3,61.1,91.3,61.1L91.3,61.1zM88.1,65.2H92.1c0.1,0,0.1,0,0.2,0c0.1,0,0.1,-0.1,0.1,-0.1c0.1,-0.1,0.1,-0.1,0.1,-0.1c0.1,-0.1,0.1,-0.1,0,-0.1l-0.4,-1.6c0,-0.1,-0.1,-0.1,-0.1,-0.1c-0.1,-0.1,-0.1,-0.1,-0.1,-0.1c-0.1,-0.1,-0.1,-0.1,-0.2,-0.1c-0.1,0,-0.1,0,-0.2,0H87.6c-0.1,0,-0.1,0,-0.2,0s-0.1,0.1,-0.1,0.1c-0.1,0.1,-0.1,0.1,-0.1,0.1c-0.1,0.1,-0.1,0.1,-0.1,0.1l0.3,1.6c0,0.1,0.1,0.1,0.1,0.1c0.1,0.1,0.1,0.1,0.1,0.1c0.1,0.1,0.1,0.1,0.2,0.1S88,65.2,88.1,65.2L88.1,65.2zM93,67.3l-0.4,-1.7c0,-0.1,-0.1,-0.1,-0.1,-0.1c-0.1,-0.1,-0.1,-0.1,-0.1,-0.1c-0.1,-0.1,-0.1,-0.1,-0.2,-0.1c-0.1,0,-0.1,0,-0.2,0h-4.1c-0.1,0,-0.1,0,-0.2,0s-0.1,0.1,-0.1,0.1c-0.1,0.1,-0.1,0.1,-0.1,0.1c-0.1,0.1,-0.1,0.1,-0.1,0.1l0.3,1.7c0,0.1,0.1,0.1,0.1,0.1c0.1,0.1,0.1,0.1,0.1,0.1c0.1,0.1,0.1,0.1,0.2,0.1s0.1,0,0.2,0H92.6c0.1,0,0.1,0,0.2,0c0.1,0,0.1,-0.1,0.1,-0.1c0.1,-0.1,0.1,-0.1,0.1,-0.1C93,67.4,93,67.4,93,67.3zM82.4,65.2c0.1,0,0.1,0,0.2,0h4c0.1,0,0.1,0,0.2,0s0.1,-0.1,0.1,-0.1c0.1,-0.1,0.1,-0.1,0.1,-0.1c0.1,-0.1,0.1,-0.1,0.1,-0.1l-0.3,-1.6c0,-0.1,-0.1,-0.1,-0.1,-0.1c-0.1,-0.1,-0.1,-0.1,-0.1,-0.1c-0.1,-0.1,-0.1,-0.1,-0.1,-0.1c-0.1,0,-0.1,0,-0.2,0h-4c-0.1,0,-0.1,0,-0.2,0s-0.1,0.1,-0.1,0.1c-0.1,0.1,-0.1,0.1,-0.1,0.1c-0.1,0.1,-0.1,0.1,-0.1,0.1l0.3,1.6c0,0.1,0.1,0.1,0.1,0.1c0.1,0.1,0.1,0.1,0.1,0.1C82.3,65.1,82.4,65.1,82.4,65.2zM87.1,65.6c-0.1,-0.1,-0.1,-0.1,-0.1,-0.1c-0.1,-0.1,-0.1,-0.1,-0.2,-0.1c-0.1,0,-0.1,0,-0.2,0h-4c-0.1,0,-0.1,0,-0.2,0s-0.1,0.1,-0.1,0.1c-0.1,0.1,-0.1,0.1,-0.1,0.1c-0.1,0.1,-0.1,0.1,-0.1,0.1l0.3,1.7c0,0.1,0.1,0.1,0.1,0.1c0.1,0.1,0.1,0.1,0.1,0.1c0.1,0.1,0.1,0.1,0.2,0.1s0.1,0,0.2,0h4.1c0.1,0,0.1,0,0.2,0s0.1,-0.1,0.1,-0.1c0.1,-0.1,0.1,-0.1,0.1,-0.1c0.1,-0.1,0.1,-0.1,0.1,-0.1l-0.3,-1.7C87.1,65.6,87.1,65.6,87.1,65.6L87.1,65.6zM81.5,65.6c-0.1,-0.1,-0.1,-0.1,-0.1,-0.1c-0.1,-0.1,-0.1,-0.1,-0.2,-0.1s-0.1,0,-0.2,0h-4c-0.1,0,-0.1,0,-0.2,0s-0.1,0.1,-0.1,0.1c-0.1,0.1,-0.1,0.1,-0.1,0.1c-0.1,0.1,-0.1,0.1,-0.1,0.1l0.2,1.7c0,0.1,0.1,0.1,0.1,0.1c0.1,0.1,0.1,0.1,0.1,0.1c0.1,0.1,0.1,0.1,0.2,0.1s0.1,0,0.2,0h4.1c0.1,0,0.1,0,0.2,0s0.1,-0.1,0.1,-0.1c0.1,-0.1,0.1,-0.1,0.1,-0.1c0.1,0,0.1,-0.1,0.1,-0.1l-0.3,-1.7C81.5,65.6,81.5,65.6,81.5,65.6L81.5,65.6L81.5,65.6zM69.2,65.6c-0.1,-0.1,-0.1,-0.1,-0.1,-0.1c-0.1,-0.1,-0.1,-0.1,-0.1,-0.1c-0.1,0,-0.1,0,-0.2,0h-4.1c-0.1,0,-0.1,0,-0.2,0s-0.1,0.1,-0.1,0.1c-0.1,0.1,-0.1,0.1,-0.1,0.1c-0.1,0.1,-0.1,0.1,-0.1,0.1l0.2,1.7c0,0.1,0.1,0.1,0.1,0.1c0.1,0.1,0.1,0.1,0.1,0.1c0.1,0.1,0.1,0.1,0.1,0.1c0.1,0,0.1,0,0.2,0H69c0.1,0,0.1,0,0.2,0s0.1,-0.1,0.1,-0.1c0.1,-0.1,0.1,-0.1,0.1,-0.1c0.1,-0.1,0.1,-0.1,0.1,-0.1l-0.2,-1.7C69.3,65.6,69.3,65.6,69.2,65.6L69.2,65.6zM63.7,65.6c-0.1,-0.1,-0.1,-0.1,-0.1,-0.1c-0.1,-0.1,-0.1,-0.1,-0.1,-0.1c-0.1,0,-0.1,0,-0.2,0h-4.1c-0.1,0,-0.1,0,-0.2,0s-0.1,0.1,-0.1,0.1c-0.1,0.1,-0.1,0.1,-0.1,0.1c-0.1,0.1,-0.1,0.1,-0.1,0.1l0.1,1.7c0,0.1,0,0.1,0.1,0.1c0.1,0.1,0.1,0.1,0.1,0.1c0.1,0.1,0.1,0.1,0.1,0.1c0.1,0,0.1,0,0.2,0h4.1c0.1,0,0.1,0,0.2,0s0.1,-0.1,0.1,-0.1c0.1,-0.1,0.1,-0.1,0.1,-0.1c0.1,-0.1,0.1,-0.1,0.1,-0.1l-0.1,-1.7C63.7,65.6,63.7,65.6,63.7,65.6L63.7,65.6zM58,65.6c-0.1,-0.1,-0.1,-0.1,-0.1,-0.1c-0.1,-0.1,-0.1,-0.1,-0.1,-0.1c-0.1,0,-0.1,0,-0.2,0H30.5c-0.1,0,-0.1,0,-0.2,0c-0.1,0,-0.1,0.1,-0.1,0.1c-0.1,0.1,-0.1,0.1,-0.1,0.1c-0.1,0.1,-0.1,0.1,-0.1,0.1l-0.2,1.7c0,0.1,0,0.1,0.1,0.1c0.1,0.1,0.1,0.1,0.1,0.1c0.1,0.1,0.1,0.1,0.1,0.1c0.1,0,0.1,0,0.2,0h27.5c0.1,0,0.1,0,0.2,0s0.1,-0.1,0.1,-0.1c0.1,-0.1,0.1,-0.1,0.1,-0.1c0.1,-0.1,0.1,-0.1,0.1,-0.1l-0.1,-1.7C58.1,65.6,58.1,65.6,58,65.6L58,65.6zM12.3,65.6c-0.1,-0.1,-0.1,-0.1,-0.1,-0.1c-0.1,0,-0.1,0,-0.2,0H7c-0.1,0,-0.1,0,-0.2,0c-0.1,0,-0.1,0.1,-0.2,0.1c-0.1,0.1,-0.1,0.1,-0.1,0.1c-0.1,0.1,-0.1,0.1,-0.1,0.1l-0.4,1.7c0,0.1,0,0.1,0,0.1c0,0.1,0.1,0.1,0.1,0.1s0.1,0.1,0.1,0.1c0.1,0,0.1,0,0.2,0h5.1c0.1,0,0.1,0,0.2,0s0.1,-0.1,0.2,-0.1c0.1,-0.1,0.1,-0.1,0.1,-0.1c0.1,-0.1,0.1,-0.1,0.1,-0.1l0.3,-1.7c0,-0.1,0,-0.1,-0.1,-0.1C12.4,65.6,12.3,65.6,12.3,65.6L12.3,65.6zM75.9,65.6c-0.1,-0.1,-0.1,-0.1,-0.1,-0.1c-0.1,-0.1,-0.1,-0.1,-0.1,-0.1c-0.1,0,-0.1,0,-0.2,0h-5c-0.1,0,-0.1,0,-0.2,0c-0.1,0,-0.1,0.1,-0.1,0.1c-0.1,0.1,-0.1,0.1,-0.1,0.1c-0.1,0.1,-0.1,0.1,-0.1,0.1l0.2,1.7c0,0.1,0.1,0.1,0.1,0.1c0.1,0.1,0.1,0.1,0.1,0.1c0.1,0.1,0.1,0.1,0.1,0.1c0.1,0,0.1,0,0.2,0h5.1c0.1,0,0.1,0,0.2,0s0.1,-0.1,0.1,-0.1c0.1,-0.1,0.1,-0.1,0.1,-0.1c0.1,-0.1,0.1,-0.1,0.1,-0.1l-0.2,-1.7C75.9,65.6,75.9,65.6,75.9,65.6L75.9,65.6zM8.9,56.5c0.1,0,0.1,0.1,0.1,0.1s0.1,0,0.2,0h3.6c0.1,0,0.1,0,0.2,0s0.1,-0.1,0.1,-0.1c0.1,0,0.1,-0.1,0.1,-0.1c0.1,-0.1,0.1,-0.1,0.1,-0.1l0.2,-0.9c0,-0.1,0,-0.1,0,-0.1c0,-0.1,-0.1,-0.1,-0.1,-0.1c-0.1,0,-0.1,-0.1,-0.1,-0.1c-0.1,0,-0.1,0,-0.2,0H9.5c-0.1,0,-0.1,0,-0.2,0s-0.1,0.1,-0.1,0.1c-0.1,0,-0.1,0.1,-0.1,0.1c-0.1,0.1,-0.1,0.1,-0.1,0.1l-0.2,0.9c0,0.1,0,0.1,0,0.1C8.9,56.5,8.9,56.5,8.9,56.5L8.9,56.5zM13.8,56.5c0.1,0,0.1,0.1,0.1,0.1c0.1,0,0.1,0,0.2,0h3.6c0.1,0,0.1,0,0.2,0s0.1,-0.1,0.1,-0.1s0.1,-0.1,0.1,-0.1c0.1,-0.1,0.1,-0.1,0.1,-0.1l0.2,-0.9c0,-0.1,0,-0.1,-0.1,-0.1c0,-0.1,-0.1,-0.1,-0.1,-0.1c-0.1,0,-0.1,-0.1,-0.1,-0.1c-0.1,0,-0.1,0,-0.2,0H14.3c-0.1,0,-0.1,0,-0.2,0c-0.1,0,-0.1,0.1,-0.1,0.1s-0.1,0.1,-0.1,0.1c-0.1,0.1,-0.1,0.1,-0.1,0.1l-0.2,0.9c0,0.1,0,0.1,0,0.1C13.7,56.5,13.7,56.5,13.8,56.5L13.8,56.5zM18.6,56.5c0.1,0,0.1,0.1,0.1,0.1c0.1,0,0.1,0,0.2,0h3.6c0.1,0,0.1,0,0.2,0s0.1,-0.1,0.1,-0.1s0.1,-0.1,0.1,-0.1c0.1,-0.1,0.1,-0.1,0.1,-0.1l0.1,-0.9c0,-0.1,0,-0.1,-0.1,-0.1c0,-0.1,-0.1,-0.1,-0.1,-0.1c-0.1,0,-0.1,-0.1,-0.1,-0.1s-0.1,0,-0.2,0h-3.5c-0.1,0,-0.1,0,-0.2,0s-0.1,0.1,-0.1,0.1s-0.1,0.1,-0.1,0.1c-0.1,0.1,-0.1,0.1,-0.1,0.1l-0.2,0.9c0,0.1,0,0.1,0.1,0.1C18.5,56.5,18.6,56.5,18.6,56.5L18.6,56.5zM23.4,56.5c0.1,0,0.1,0.1,0.1,0.1s0.1,0,0.2,0h3.6c0.1,0,0.1,0,0.2,0c0.1,0,0.1,-0.1,0.1,-0.1c0.1,0,0.1,-0.1,0.1,-0.1c0.1,-0.1,0.1,-0.1,0.1,-0.1l0.1,-0.9c0,-0.1,0,-0.1,-0.1,-0.1c-0.1,-0.1,-0.1,-0.1,-0.1,-0.1c-0.1,0,-0.1,-0.1,-0.1,-0.1s-0.1,0,-0.2,0h-3.5c-0.1,0,-0.1,0,-0.2,0s-0.1,0.1,-0.1,0.1s-0.1,0.1,-0.1,0.1c-0.1,0.1,-0.1,0.1,-0.1,0.1l-0.1,0.9c0,0.1,0,0.1,0.1,0.1C23.3,56.5,23.4,56.5,23.4,56.5L23.4,56.5L23.4,56.5zM28.2,56.5c0.1,0,0.1,0.1,0.1,0.1s0.1,0,0.2,0h3.6c0.1,0,0.1,0,0.2,0c0.1,0,0.1,-0.1,0.1,-0.1s0.1,-0.1,0.1,-0.1c0.1,-0.1,0.1,-0.1,0.1,-0.1l0.1,-0.9c0,-0.1,0,-0.1,-0.1,-0.1c-0.1,-0.1,-0.1,-0.1,-0.1,-0.1c-0.1,0,-0.1,-0.1,-0.1,-0.1s-0.1,0,-0.2,0h-3.5c-0.1,0,-0.1,0,-0.2,0c-0.1,0,-0.1,0.1,-0.1,0.1c-0.1,0,-0.1,0.1,-0.1,0.1c-0.1,0.1,-0.1,0.1,-0.1,0.1l-0.1,0.9c0,0.1,0,0.1,0.1,0.1C28.2,56.5,28.2,56.5,28.2,56.5L28.2,56.5zM33.1,56.5c0.1,0,0.1,0.1,0.1,0.1s0.1,0,0.2,0h3.6c0.1,0,0.1,0,0.2,0c0.1,0,0.1,-0.1,0.1,-0.1c0.1,0,0.1,-0.1,0.1,-0.1c0.1,-0.1,0.1,-0.1,0.1,-0.1l0.1,-0.9c0,-0.1,0,-0.1,-0.1,-0.1c-0.1,-0.1,-0.1,-0.1,-0.1,-0.1c-0.1,0,-0.1,-0.1,-0.1,-0.1s-0.1,0,-0.2,0h-3.5c-0.1,0,-0.1,0,-0.2,0c-0.1,0,-0.1,0.1,-0.1,0.1c-0.1,0,-0.1,0.1,-0.1,0.1c-0.1,0.1,-0.1,0.1,-0.1,0.1l-0.1,0.9c0,0.1,0,0.1,0.1,0.1C33,56.5,33.1,56.5,33.1,56.5L33.1,56.5zM37.9,56.5c0.1,0,0.1,0.1,0.1,0.1s0.1,0,0.2,0H41.8c0.1,0,0.1,0,0.2,0c0.1,0,0.1,-0.1,0.1,-0.1c0.1,0,0.1,-0.1,0.1,-0.1c0.1,-0.1,0.1,-0.1,0.1,-0.1l0.1,-0.9c0,-0.1,0,-0.1,-0.1,-0.1c-0.1,-0.1,-0.1,-0.1,-0.1,-0.1c-0.1,0,-0.1,-0.1,-0.1,-0.1c-0.1,0,-0.1,0,-0.2,0h-3.5c-0.1,0,-0.1,0,-0.2,0c-0.1,0,-0.1,0.1,-0.1,0.1c-0.1,0,-0.1,0.1,-0.1,0.1c-0.1,0.1,-0.1,0.1,-0.1,0.1l-0.1,0.9c0,0.1,0,0.1,0.1,0.1C37.8,56.5,37.9,56.5,37.9,56.5L37.9,56.5zM42.7,56.5c0.1,0,0.1,0.1,0.1,0.1s0.1,0,0.2,0h3.6c0.1,0,0.1,0,0.2,0s0.1,-0.1,0.1,-0.1c0.1,0,0.1,-0.1,0.1,-0.1c0.1,-0.1,0.1,-0.1,0.1,-0.1v-0.9c0,-0.1,0,-0.1,-0.1,-0.1c-0.1,-0.1,-0.1,-0.1,-0.1,-0.1c-0.1,0,-0.1,-0.1,-0.1,-0.1s-0.1,0,-0.2,0h-3.5c-0.1,0,-0.1,0,-0.2,0s-0.1,0.1,-0.1,0.1c-0.1,0,-0.1,0.1,-0.1,0.1c-0.1,0.1,-0.1,0.1,-0.1,0.1l-0.1,0.9c0,0.1,0,0.1,0.1,0.1C42.7,56.5,42.7,56.5,42.7,56.5zM47.6,56.5c0.1,0,0.1,0.1,0.1,0.1s0.1,0,0.2,0h3.6c0.1,0,0.1,0,0.2,0s0.1,-0.1,0.1,-0.1c0.1,0,0.1,-0.1,0.1,-0.1c0.1,-0.1,0.1,-0.1,0.1,-0.1v-0.9c0,-0.1,0,-0.1,-0.1,-0.1c-0.1,-0.1,-0.1,-0.1,-0.1,-0.1c-0.1,0,-0.1,-0.1,-0.1,-0.1c-0.1,0,-0.1,0,-0.2,0h-3.5c-0.1,0,-0.1,0,-0.2,0s-0.1,0.1,-0.1,0.1s-0.1,0.1,-0.1,0.1c-0.1,0.1,-0.1,0.1,-0.1,0.1v0.9c0,0.1,0,0.1,0.1,0.1C47.5,56.5,47.6,56.5,47.6,56.5L47.6,56.5zM52.4,56.4c0.1,0.1,0.1,0.1,0.1,0.1s0.1,0.1,0.1,0.1s0.1,0,0.2,0h3.6c0.1,0,0.1,0,0.2,0s0.1,-0.1,0.1,-0.1c0.1,0,0.1,-0.1,0.1,-0.1c0.1,-0.1,0.1,-0.1,0.1,-0.1l-0.1,-0.9c0,-0.1,0,-0.1,-0.1,-0.1c-0.1,-0.1,-0.1,-0.1,-0.1,-0.1s-0.1,-0.1,-0.1,-0.1s-0.1,0,-0.2,0h-3.5c-0.1,0,-0.1,0,-0.2,0s-0.1,0.1,-0.1,0.1c-0.1,0,-0.1,0.1,-0.1,0.1c-0.1,0.1,-0.1,0.1,-0.1,0.1l0.1,0.9C52.3,56.4,52.3,56.4,52.4,56.4L52.4,56.4zM57.2,56.4c0.1,0.1,0.1,0.1,0.1,0.1c0.1,0,0.1,0.1,0.1,0.1s0.1,0,0.2,0h3.6c0.1,0,0.1,0,0.2,0s0.1,-0.1,0.1,-0.1l0.1,-0.1c0.1,-0.1,0.1,-0.1,0.1,-0.1l-0.1,-0.9c0,-0.1,0,-0.1,-0.1,-0.1c-0.1,-0.1,-0.1,-0.1,-0.1,-0.1s-0.1,-0.1,-0.1,-0.1c-0.1,0,-0.1,0,-0.2,0h-3.5c-0.1,0,-0.1,0,-0.2,0s-0.1,0.1,-0.1,0.1c-0.1,0,-0.1,0.1,-0.1,0.1c-0.1,0.1,-0.1,0.1,-0.1,0.1l0.1,0.9C57.1,56.4,57.1,56.4,57.2,56.4L57.2,56.4zM62,56.4c0.1,0.1,0.1,0.1,0.1,0.1c0.1,0,0.1,0.1,0.1,0.1c0.1,0,0.1,0,0.2,0h3.6c0.1,0,0.1,0,0.2,0s0.1,-0.1,0.1,-0.1c0.1,0,0.1,-0.1,0.1,-0.1c0.1,-0.1,0.1,-0.1,0.1,-0.1l-0.1,-0.9c0,-0.1,0,-0.1,-0.1,-0.1c-0.1,-0.1,-0.1,-0.1,-0.1,-0.1c-0.1,0,-0.1,-0.1,-0.1,-0.1s-0.1,0,-0.2,0H62.3c-0.1,0,-0.1,0,-0.2,0s-0.1,0.1,-0.1,0.1c-0.1,0,-0.1,0.1,-0.1,0.1c-0.1,0.1,-0.1,0.1,-0.1,0.1l0.1,0.9C61.9,56.4,61.9,56.4,62,56.4L62,56.4zM66.8,56.4c0.1,0.1,0.1,0.1,0.1,0.1s0.1,0.1,0.1,0.1s0.1,0,0.2,0h3.6c0.1,0,0.1,0,0.2,0s0.1,-0.1,0.1,-0.1l0.1,-0.1c0.1,-0.1,0.1,-0.1,0.1,-0.1l-0.1,-0.9c0,-0.1,-0.1,-0.1,-0.1,-0.1c-0.1,-0.1,-0.1,-0.1,-0.1,-0.1c-0.1,0,-0.1,-0.1,-0.1,-0.1s-0.1,0,-0.2,0h-3.5c-0.1,0,-0.1,0,-0.2,0s-0.1,0.1,-0.1,0.1l-0.1,0.1c-0.1,0.1,-0.1,0.1,-0.1,0.1l0.1,0.9C66.8,56.4,66.8,56.4,66.8,56.4L66.8,56.4zM71.7,56.4c0.1,0.1,0.1,0.1,0.1,0.1c0.1,0,0.1,0.1,0.1,0.1c0.1,0,0.1,0,0.2,0h3.6c0.1,0,0.1,0,0.2,0s0.1,-0.1,0.1,-0.1c0.1,0,0.1,-0.1,0.1,-0.1c0,-0.1,0.1,-0.1,0.1,-0.1l-0.2,-0.9c0,-0.1,-0.1,-0.1,-0.1,-0.1c-0.1,-0.1,-0.1,-0.1,-0.1,-0.1c-0.1,0,-0.1,-0.1,-0.1,-0.1c-0.1,0,-0.1,0,-0.2,0h-3.5c-0.1,0,-0.1,0,-0.2,0s-0.1,0.1,-0.1,0.1c-0.1,0,-0.1,0.1,-0.1,0.1c-0.1,0.1,-0.1,0.1,-0.1,0.1l0.1,0.9C71.6,56.4,71.7,56.4,71.7,56.4L71.7,56.4zM76.5,56.4c0.1,0.1,0.1,0.1,0.1,0.1c0.1,0,0.1,0.1,0.1,0.1s0.1,0,0.2,0H80.5c0.1,0,0.1,0,0.2,0s0.1,-0.1,0.1,-0.1c0.1,0,0.1,-0.1,0.1,-0.1c0,-0.1,0.1,-0.1,0.1,-0.1l-0.2,-0.9c0,-0.1,-0.1,-0.1,-0.1,-0.1c-0.1,-0.1,-0.1,-0.1,-0.1,-0.1c-0.1,0,-0.1,-0.1,-0.1,-0.1s-0.1,0,-0.2,0h-3.5c-0.1,0,-0.1,0,-0.2,0s-0.1,0.1,-0.1,0.1c-0.1,0,-0.1,0.1,-0.1,0.1c0,0.1,-0.1,0.1,-0.1,0.1l0.2,0.9C76.5,56.4,76.5,56.4,76.5,56.4L76.5,56.4zM81.3,56.4c0.1,0.1,0.1,0.1,0.1,0.1c0.1,0,0.1,0.1,0.1,0.1c0.1,0,0.1,0,0.2,0h3.6c0.1,0,0.1,0,0.2,0s0.1,-0.1,0.1,-0.1l0.1,-0.1c0,-0.1,0.1,-0.1,0,-0.1l-0.2,-0.9c0,-0.1,-0.1,-0.1,-0.1,-0.1c-0.1,-0.1,-0.1,-0.1,-0.1,-0.1c-0.1,0,-0.1,-0.1,-0.1,-0.1s-0.1,0,-0.2,0h-3.5c-0.1,0,-0.1,0,-0.2,0s-0.1,0.1,-0.1,0.1c-0.1,0,-0.1,0.1,-0.1,0.1c-0.1,0.1,-0.1,0.1,-0.1,0.1l0.2,0.9C81.3,56.4,81.3,56.4,81.3,56.4L81.3,56.4zM86.2,56.4c0.1,0.1,0.1,0.1,0.1,0.1c0.1,0,0.1,0.1,0.1,0.1s0.1,0,0.2,0h3.6c0.1,0,0.1,0,0.2,0c0.1,0,0.1,-0.1,0.1,-0.1c0.1,0,0.1,-0.1,0.1,-0.1c0,-0.1,0.1,-0.1,0,-0.1l-0.2,-0.9c0,-0.1,-0.1,-0.1,-0.1,-0.1c-0.1,-0.1,-0.1,-0.1,-0.1,-0.1c-0.1,0,-0.1,-0.1,-0.1,-0.1s-0.1,0,-0.2,0h-3.6c-0.1,0,-0.1,0,-0.2,0s-0.1,0.1,-0.1,0.1l-0.1,0.1c-0.1,0.1,-0.1,0.1,-0.1,0.1l0.2,0.9C86.1,56.4,86.2,56.4,86.2,56.4L86.2,56.4z"/>
    <polygon points="90.1,50.9 8.9,50.9 10,2.8 89.1,2.8"/>
    <path d="M60.5,71.2c0,-0.1,-0.1,-0.2,-0.2,-0.3c-0.1,-0.1,-0.2,-0.2,-0.3,-0.2c-0.2,-0.1,-0.3,-0.1,-0.5,-0.2c-0.2,-0.1,-0.4,-0.1,-0.6,-0.1H38.4c-0.2,0,-0.4,0.1,-0.6,0.1c-0.2,0.1,-0.4,0.1,-0.5,0.2c-0.2,0.1,-0.3,0.2,-0.4,0.2c-0.1,0.1,-0.2,0.2,-0.2,0.3l-0.3,3.5h24.2L60.5,71.2z"/>
    <path d="M58.9,70.5L58.9,70.5L58.9,70.5z"/>
    <path d="M60.6,74.8L60.6,74.8H36.4l-0.2,1.7c0,0.1,0.1,0.2,0.1,0.3c0.1,0.1,0.2,0.2,0.3,0.2c0.2,0.1,0.3,0.1,0.5,0.2s0.4,0.1,0.6,0.1h21.4c0.2,0,0.4,-0.1,0.6,-0.1c0.2,-0.1,0.4,-0.1,0.5,-0.2c0.2,-0.1,0.3,-0.2,0.3,-0.2c0.1,-0.1,0.1,-0.2,0.1,-0.3L60.6,74.8z"/>
</g>
<rect x="12.5" y="9.1" width="73.8" height="37.3" fill="none"/>
<path fill="none" d="M92.6,53.9c0,-0.1,-0.1,-0.1,-0.1,-0.2c-0.1,-0.1,-0.1,-0.1,-0.2,-0.1c-0.1,-0.1,-0.2,-0.1,-0.3,-0.1c-0.1,-0,-0.1,-0,-0.2,-0.1v-0.2h0.1c0.1,0,0.2,0,0.3,-0.1c0.1,0,0.2,-0.1,0.3,-0.2c0.1,-0.1,0.1,-0.2,0.2,-0.3c0.1,-0.2,0.1,-0.3,0.1,-0.4L91.3,0.9c-0.1,-0.1,-0.1,-0.2,-0.1,-0.3c0,-0.1,-0.1,-0.2,-0.2,-0.3c-0.1,-0.1,-0.2,-0.2,-0.3,-0.2c-0.1,0,-0.2,-0.1,-0.3,-0.1H8.6c-0.1,0,-0.3,0.1,-0.3,0.1c-0.1,0.1,-0.2,0.1,-0.3,0.2c-0.1,0.1,-0.1,0.2,-0.2,0.3c-0.1,0.1,-0.1,0.2,-0.1,0.3l-1.3,51.3c0,0.1,0,0.3,0.1,0.4c0,0.2,0.1,0.2,0.2,0.3c0.1,0.1,0.2,0.1,0.3,0.2c0.1,0,0.2,0.1,0.3,0.1v0.2c-0.1,0,-0.3,0,-0.4,0.1c-0.2,0.1,-0.2,0.1,-0.3,0.1c-0.1,0,-0.2,0.1,-0.2,0.1c-0.1,0.1,-0.1,0.1,-0.1,0.2L0,79.1c0,0.7,0.1,1.4,0.2,2.1c0,0.1,0,0.1,0.1,0.2c0,0,0.2,0.1,0.4,0.2c0.1,0,0.3,0.1,0.4,0.1l0,0h96.9v0c0.1,0,0.5,0,0.6,-0.1c0.1,-0.1,0.4,-0.3,0.4,-0.4c0.1,-0.7,0.1,-1.4,0.2,-2.1L92.6,53.9z"/>
<circle fill="none" cx="49.6" cy="0" r="0.1"/>
<circle fill="none" cx="70.4" cy="0" r="0.1"/>
<circle fill="none" cx="91.6" cy="14" r="0.1"/>
<circle fill="none" cx="92.3" cy="40.2" r="0.1"/>
<circle fill="none" cx="95.8" cy="66.5" r="0.1"/>
<circle fill="none" cx="74" cy="81.6" r="0.1"/>
<circle fill="none" cx="49.5" cy="81.6" r="0.1"/>
<circle fill="none" cx="25" cy="81.6" r="0.1"/>
<circle fill="none" cx="3.1" cy="66.5" r="0.1"/>
<circle fill="none" cx="6.8" cy="40.2" r="0.1"/>
<circle fill="none" cx="7.4" cy="14" r="0.1"/>
<circle fill="none" cx="28.8" cy="0" r="0.1"/>
</g></g><rect stroke="none" stroke-width="1" fill="#FFFFFF" x="0" y="0" width="40" height="20" transform="translate(-21.3,-62.1)"/><path stroke="#000000" fill="none" d="M28.8,0 C36.3,-28.2 -3.1,-13.9 4.5 -42.1"/><text font-family="OpenSansCondensedLight" font-size="14pt" fill="black" transform="translate(-21.3,-62.1)" text-anchor="middle"><tspan x="20" y="16.3">202</tspan></text><rect stroke-width="0" fill="none" width="297.1" transform="translate(-99,91.7)"/><text font-family="OpenSansCondensedLight" font-size="14pt" fill="black" transform="translate(-99,91.7)" text-anchor="middle"><tspan x="148.5" y="16.8">COMPUTER</tspan></text><path stroke="#000000" fill="none" transform="translate(-99,91.7)" d="M 0 0"/></g><g transform="translate(239,128)"><g><g>
<g stroke-width="0.5" stroke="#000000" stroke-dasharray="none" fill="#FFFFFF">
    <path d="M0,75.9l9.9,-9.5h59.6l9.9,9.5v22.3H0V75.9z"/>
    <path d="M4.1,79.1H75.4c0.4,0,0.8,0.4,0.8,0.8v14.4c0,0.4,-0.4,0.8,-0.8,0.8H4.1c-0.4,0,-0.8,-0.4,-0.8,-0.8v-14.4C3.3,79.5,3.7,79.1,4.1,79.1"/>
    <path d="M57.1,85.6c0,1,-1.7,1,-1.7,0C55.5,84.4,57.1,84.4,57.1,85.6"/>
    <path d="M64.6,80.9h1.7v12.6h-1.7V80.9z"/>
    <path d="M5.8,80.9h5.1c0.4,0,0.8,0.4,0.8,0.8v3.2c0,0.4,-0.4,0.8,-0.8,0.8h-5.1c-0.4,0,-0.8,-0.4,-0.8,-0.8v-3.1C4.9,81.1,5.4,80.9,5.8,80.9"/>
    <path d="M5.8,88.8h5.1c0.4,0,0.8,0.4,0.8,0.8v3.2c0,0.4,-0.4,0.8,-0.8,0.8h-5.1c-0.4,0,-0.8,-0.4,-0.8,-0.8v-3.2C4.9,89.2,5.4,88.8,5.8,88.8"/>
    <path d="M15.8,80.9h5.1c0.4,0,0.8,0.4,0.8,0.8v3.2c0,0.4,-0.4,0.8,-0.8,0.8h-5.1c-0.4,0,-0.8,-0.4,-0.8,-0.8v-3.1C15,81.1,15.2,80.9,15.8,80.9"/>
    <path d="M25.7,80.9h5.1c0.4,0,0.8,0.4,0.8,0.8v3.2c0,0.4,-0.4,0.8,-0.8,0.8h-5.1c-0.4,0,-0.8,-0.4,-0.8,-0.8v-3.1C24.9,81.1,25.3,80.9,25.7,80.9"/>
    <path d="M35.6,80.9h5.1c0.4,0,0.8,0.4,0.8,0.8v3.2c0,0.4,-0.4,0.8,-0.8,0.8h-5.1c-0.4,0,-0.8,-0.4,-0.8,-0.8v-3.1C34.7,81.1,35.2,80.9,35.6,80.9"/>
    <path d="M45.6,80.9h5.1c0.4,0,0.8,0.4,0.8,0.8v3.2c0,0.4,-0.4,0.8,-0.8,0.8h-5.1c-0.4,0,-0.8,-0.4,-0.8,-0.8v-3.1C44.8,81.1,45,80.9,45.6,80.9"/>
    <path d="M15.8,88.8h5.1c0.4,0,0.8,0.4,0.8,0.8v3.2c0,0.4,-0.4,0.8,-0.8,0.8h-5.1c-0.4,0,-0.8,-0.4,-0.8,-0.8v-3.2C15,89.2,15.2,88.8,15.8,88.8"/>
    <path d="M25.7,88.8h5.1c0.4,0,0.8,0.4,0.8,0.8v3.2c0,0.4,-0.4,0.8,-0.8,0.8h-5.1c-0.4,0,-0.8,-0.4,-0.8,-0.8v-3.2C24.9,89.2,25.3,88.8,25.7,88.8"/>
    <path d="M35.6,88.8h5.1c0.4,0,0.8,0.4,0.8,0.8v3.2c0,0.4,-0.4,0.8,-0.8,0.8h-5.1c-0.4,0,-0.8,-0.4,-0.8,-0.8v-3.2C34.7,89.2,35.2,88.8,35.6,88.8"/>
    <path d="M45.6,88.8h5.1c0.4,0,0.8,0.4,0.8,0.8v3.2c0,0.4,-0.4,0.8,-0.8,0.8h-5.1c-0.4,0,-0.8,-0.4,-0.8,-0.8v-3.2C44.8,89.2,45,88.8,45.6,88.8"/>
    <path d="M6.6,75.9l6.6,-6.3h54.7l6.6,6.3H6.6z"/>
    <path d="M57.1,82.4c0,1,-1.7,1,-1.7,0C55.5,81.3,57.1,81.3,57.1,82.4"/>
    <path d="M67.8,80.9h1.7v12.6h-1.7V80.9z"/>
    <path d="M71.3,80.9h1.7v12.6h-1.7V80.9z"/>
    <path d="M57.1,88.8c0,1,-1.7,1,-1.7,0C55.5,87.8,57.1,87.6,57.1,88.8"/>
    <path d="M57.1,91.9c0,1,-1.7,1,-1.7,0C55.5,90.9,57.1,90.9,57.1,91.9"/>
    <path d="M0,53.9l9.9,-9.5h59.6l9.9,9.5v22.3H0V53.9z"/>
    <path d="M4.1,57H75.4c0.4,0,0.8,0.4,0.8,0.8v14.4c0,0.4,-0.4,0.8,-0.8,0.8H4.1c-0.4,0,-0.8,-0.4,-0.8,-0.8v-14.4C3.3,57.4,3.7,57,4.1,57"/>
    <path d="M57.1,63.3c0,1,-1.7,1,-1.7,0C55.5,62.3,57.1,62.3,57.1,63.3"/>
    <path d="M64.6,58.6h1.7v12.6h-1.7V58.6z"/>
    <path d="M5.8,58.6h5.1c0.4,0,0.8,0.4,0.8,0.8v3.2c0,0.4,-0.4,0.8,-0.8,0.8h-5.1c-0.4,0,-0.8,-0.4,-0.8,-0.8v-3.2C4.9,59,5.4,58.6,5.8,58.6"/>
    <path d="M5.8,66.7h5.1c0.4,0,0.8,0.4,0.8,0.8v3.2c0,0.4,-0.4,0.8,-0.8,0.8h-5.1c-0.4,0,-0.8,-0.4,-0.8,-0.8V67.5C4.9,66.9,5.4,66.7,5.8,66.7"/>
    <path d="M15.8,58.6h5.1c0.4,0,0.8,0.4,0.8,0.8v3.2c0,0.4,-0.4,0.8,-0.8,0.8h-5.1c-0.4,0,-0.8,-0.4,-0.8,-0.8v-3.2C15,59,15.2,58.6,15.8,58.6"/>
    <path d="M25.7,58.6h5.1c0.4,0,0.8,0.4,0.8,0.8v3.2c0,0.4,-0.4,0.8,-0.8,0.8h-5.1c-0.4,0,-0.8,-0.4,-0.8,-0.8v-3.2C24.9,59,25.3,58.6,25.7,58.6"/>
    <path d="M35.6,58.6h5.1c0.4,0,0.8,0.4,0.8,0.8v3.2c0,0.4,-0.4,0.8,-0.8,0.8h-5.1c-0.4,0,-0.8,-0.4,-0.8,-0.8v-3.2C34.7,59,35.2,58.6,35.6,58.6"/>
    <path d="M45.6,58.6h5.1c0.4,0,0.8,0.4,0.8,0.8v3.2c0,0.4,-0.4,0.8,-0.8,0.8h-5.1c-0.4,0,-0.8,-0.4,-0.8,-0.8v-3.2C44.8,59,45,58.6,45.6,58.6"/>
    <path d="M15.8,66.7h5.1c0.4,0,0.8,0.4,0.8,0.8v3.2c0,0.4,-0.4,0.8,-0.8,0.8h-5.1c-0.4,0,-0.8,-0.4,-0.8,-0.8V67.5C15,66.9,15.2,66.7,15.8,66.7"/>
    <path d="M25.7,66.7h5.1c0.4,0,0.8,0.4,0.8,0.8v3.2c0,0.4,-0.4,0.8,-0.8,0.8h-5.1c-0.4,0,-0.8,-0.4,-0.8,-0.8V67.5C24.9,66.9,25.3,66.7,25.7,66.7"/>
    <path d="M35.6,66.7h5.1c0.4,0,0.8,0.4,0.8,0.8v3.2c0,0.4,-0.4,0.8,-0.8,0.8h-5.1c-0.4,0,-0.8,-0.4,-0.8,-0.8V67.5C34.7,66.9,35.2,66.7,35.6,66.7"/>
    <path d="M45.6,66.7h5.1c0.4,0,0.8,0.4,0.8,0.8v3.2c0,0.4,-0.4,0.8,-0.8,0.8h-5.1c-0.4,0,-0.8,-0.4,-0.8,-0.8V67.5C44.8,66.9,45,66.7,45.6,66.7"/>
    <path d="M6.6,53.9l6.6,-6.3h54.7l6.6,6.3H6.6z"/>
    <path d="M57.1,60.2c0,1,-1.7,1,-1.7,0S57.1,59.2,57.1,60.2"/>
    <path d="M67.8,58.6h1.7v12.6h-1.7V58.6z"/>
    <path d="M71.3,58.6h1.7v12.6h-1.7V58.6z"/>
    <path d="M57.1,66.7c0,1,-1.7,1,-1.7,0C55.5,65.7,57.1,65.5,57.1,66.7"/>
    <path d="M57.1,69.8c0,1,-1.7,1,-1.7,0C55.5,68.9,57.1,68.6,57.1,69.8"/>
    <path d="M0,31.6l9.9,-9.5h59.6l9.9,9.5v22.3H0V31.6z"/>
    <path d="M4.1,34.7H75.4c0.4,0,0.8,0.4,0.8,0.8v14.4c0,0.4,-0.4,0.8,-0.8,0.8H4.1c-0.4,0,-0.8,-0.4,-0.8,-0.8v-14.4C3.3,35.1,3.7,34.7,4.1,34.7"/>
    <path d="M57.1,41.2c0,1,-1.7,1,-1.7,0C55.5,40,57.1,40,57.1,41.2"/>
    <path d="M64.6,36.3h1.7v12.6h-1.7V36.3z"/>
    <path d="M5.8,36.3h5.1c0.4,0,0.8,0.4,0.8,0.8v3.2c0,0.4,-0.4,0.8,-0.8,0.8h-5.1c-0.4,0,-0.8,-0.4,-0.8,-0.8v-3.2C4.9,36.7,5.4,36.3,5.8,36.3"/>
    <path d="M5.8,44.4h5.1c0.4,0,0.8,0.4,0.8,0.8v3.2c0,0.4,-0.4,0.8,-0.8,0.8h-5.1c-0.4,0,-0.8,-0.4,-0.8,-0.8v-3.2C4.9,44.8,5.4,44.4,5.8,44.4"/>
    <path d="M15.8,36.3h5.1c0.4,0,0.8,0.4,0.8,0.8v3.2c0,0.4,-0.4,0.8,-0.8,0.8h-5.1c-0.4,0,-0.8,-0.4,-0.8,-0.8v-3.2C15,36.7,15.2,36.3,15.8,36.3"/>
    <path d="M25.7,36.3h5.1c0.4,0,0.8,0.4,0.8,0.8v3.2c0,0.4,-0.4,0.8,-0.8,0.8h-5.1c-0.4,0,-0.8,-0.4,-0.8,-0.8v-3.2C24.9,36.7,25.3,36.3,25.7,36.3"/>
    <path d="M35.6,36.3h5.1c0.4,0,0.8,0.4,0.8,0.8v3.2c0,0.4,-0.4,0.8,-0.8,0.8h-5.1c-0.4,0,-0.8,-0.4,-0.8,-0.8v-3.2C34.7,36.7,35.2,36.3,35.6,36.3"/>
    <path d="M45.6,36.3h5.1c0.4,0,0.8,0.4,0.8,0.8v3.2c0,0.4,-0.4,0.8,-0.8,0.8h-5.1c-0.4,0,-0.8,-0.4,-0.8,-0.8v-3.2C44.8,36.7,45,36.3,45.6,36.3"/>
    <path d="M15.8,44.4h5.1c0.4,0,0.8,0.4,0.8,0.8v3.2c0,0.4,-0.4,0.8,-0.8,0.8h-5.1c-0.4,0,-0.8,-0.4,-0.8,-0.8v-3.2C15,44.8,15.2,44.4,15.8,44.4"/>
    <path d="M25.7,44.4h5.1c0.4,0,0.8,0.4,0.8,0.8v3.2c0,0.4,-0.4,0.8,-0.8,0.8h-5.1c-0.4,0,-0.8,-0.4,-0.8,-0.8v-3.2C24.9,44.8,25.3,44.4,25.7,44.4"/>
    <path d="M35.6,44.4h5.1c0.4,0,0.8,0.4,0.8,0.8v3.2c0,0.4,-0.4,0.8,-0.8,0.8h-5.1c-0.4,0,-0.8,-0.4,-0.8,-0.8v-3.2C34.7,44.8,35.2,44.4,35.6,44.4"/>
    <path d="M45.6,44.4h5.1c0.4,0,0.8,0.4,0.8,0.8v3.2c0,0.4,-0.4,0.8,-0.8,0.8h-5.1c-0.4,0,-0.8,-0.4,-0.8,-0.8v-3.2C44.8,44.8,45,44.4,45.6,44.4"/>
    <path d="M6.6,31.6l6.6,-6.3h54.7l6.6,6.3H6.6z"/>
    <path d="M57.1,37.9c0,1,-1.7,1,-1.7,0C55.5,36.9,57.1,36.9,57.1,37.9"/>
    <path d="M67.8,36.3h1.7v12.6h-1.7V36.3z"/>
    <path d="M71.3,36.3h1.7v12.6h-1.7V36.3z"/>
    <path d="M57.1,44.4c0,1,-1.7,1,-1.7,0C55.5,43.4,57.1,43.2,57.1,44.4"/>
    <path d="M57.1,47.5c0,1,-1.7,1,-1.7,0C55.5,46.6,57.1,46.4,57.1,47.5"/>
    <path d="M0,9.5L9.9,0h59.6l9.9,9.5v22.3H0V9.5z"/>
    <path d="M4.1,12.6H75.4c0.4,0,0.8,0.4,0.8,0.8v14.4c0,0.4,-0.4,0.8,-0.8,0.8H4.1c-0.4,0,-0.8,-0.4,-0.8,-0.8v-14.4C3.3,13,3.7,12.6,4.1,12.6"/>
    <path d="M57.1,18.9c0,1,-1.7,1,-1.7,0C55.5,18,57.1,18,57.1,18.9"/>
    <path d="M64.6,14.2h1.7v12.6h-1.7V14.2z"/>
    <path d="M5.8,14.2h5.1c0.4,0,0.8,0.4,0.8,0.8v3.2c0,0.4,-0.4,0.8,-0.8,0.8h-5.1c-0.4,0,-0.8,-0.4,-0.8,-0.8V15C4.9,14.6,5.4,14.2,5.8,14.2"/>
    <path d="M5.8,22.1h5.1c0.4,0,0.8,0.4,0.8,0.8v3.2c0,0.4,-0.4,0.8,-0.8,0.8h-5.1c-0.4,0,-0.8,-0.4,-0.8,-0.8v-3.1C4.9,22.5,5.4,22.1,5.8,22.1"/>
    <path d="M15.8,14.2h5.1c0.4,0,0.8,0.4,0.8,0.8v3.2c0,0.4,-0.4,0.8,-0.8,0.8h-5.1c-0.4,0,-0.8,-0.4,-0.8,-0.8V15C15,14.6,15.2,14.2,15.8,14.2"/>
    <path d="M25.7,14.2h5.1c0.4,0,0.8,0.4,0.8,0.8v3.2c0,0.4,-0.4,0.8,-0.8,0.8h-5.1c-0.4,0,-0.8,-0.4,-0.8,-0.8V15C24.9,14.6,25.3,14.2,25.7,14.2"/>
    <path d="M35.6,14.2h5.1c0.4,0,0.8,0.4,0.8,0.8v3.2c0,0.4,-0.4,0.8,-0.8,0.8h-5.1c-0.4,0,-0.8,-0.4,-0.8,-0.8V15C34.7,14.6,35.2,14.2,35.6,14.2"/>
    <path d="M45.6,14.2h5.1c0.4,0,0.8,0.4,0.8,0.8v3.2c0,0.4,-0.4,0.8,-0.8,0.8h-5.1c-0.4,0,-0.8,-0.4,-0.8,-0.8V15C44.8,14.6,45,14.2,45.6,14.2"/>
    <path d="M15.8,22.1h5.1c0.4,0,0.8,0.4,0.8,0.8v3.2c0,0.4,-0.4,0.8,-0.8,0.8h-5.1c-0.4,0,-0.8,-0.4,-0.8,-0.8v-3.1C15,22.5,15.2,22.1,15.8,22.1"/>
    <path d="M25.7,22.1h5.1c0.4,0,0.8,0.4,0.8,0.8v3.2c0,0.4,-0.4,0.8,-0.8,0.8h-5.1c-0.4,0,-0.8,-0.4,-0.8,-0.8v-3.1C24.9,22.5,25.3,22.1,25.7,22.1"/>
    <path d="M35.6,22.1h5.1c0.4,0,0.8,0.4,0.8,0.8v3.2c0,0.4,-0.4,0.8,-0.8,0.8h-5.1c-0.4,0,-0.8,-0.4,-0.8,-0.8v-3.1C34.7,22.5,35.2,22.1,35.6,22.1"/>
    <path d="M45.6,22.1h5.1c0.4,0,0.8,0.4,0.8,0.8v3.2c0,0.4,-0.4,0.8,-0.8,0.8h-5.1c-0.4,0,-0.8,-0.4,-0.8,-0.8v-3.1C44.8,22.5,45,22.1,45.6,22.1"/>
    <path d="M6.6,9.5l6.6,-6.3h54.7l6.6,6.3H6.6z"/>
    <path d="M57.1,15.8c0,1,-1.7,1,-1.7,0S57.1,14.8,57.1,15.8"/>
    <path d="M67.8,14.2h1.7v12.6h-1.7V14.2z"/>
    <path d="M71.3,14.2h1.7v12.6h-1.7V14.2z"/>
    <path d="M57.1,22.1c0,1,-1.7,1,-1.7,0C55.5,21.1,57.1,21.1,57.1,22.1"/>
    <path d="M57.1,25.4c0,1,-1.7,1,-1.7,0C55.5,24.5,57.1,24.3,57.1,25.4"/>
</g>
<rect x="3.3" y="14.6" width="73" height="74.5" fill="none"/>
<polygon fill="none" points="69.5,0 9.9,0 0,9.5 0,98.3 79.4,98.3 79.4,9.5"/>
<circle fill="none" cx="39.7" cy="0" r="0.1"/>
<circle fill="none" cx="59.3" cy="0" r="0.1"/>
<circle fill="none" cx="79.3" cy="24.8" r="0.1"/>
<circle fill="none" cx="79.3" cy="49.1" r="0.1"/>
<circle fill="none" cx="79.3" cy="73.5" r="0.1"/>
<circle fill="none" cx="59.3" cy="98.3" r="0.1"/>
<circle fill="none" cx="39.7" cy="98.3" r="0.1"/>
<circle fill="none" cx="20.1" cy="98.3" r="0.1"/>
<circle fill="none" cx="0" cy="73.5" r="0.1"/>
<circle fill="none" cx="0" cy="49.1" r="0.1"/>
<circle fill="none" cx="0" cy="24.8" r="0.1"/>
<circle fill="none" cx="20.1" cy="0" r="0.1"/>
</g></g><rect stroke="none" stroke-width="1" fill="#FFFFFF" x="0" y="0" width="40" height="20" transform="translate(-30,-62.1)"/><path stroke="#000000" fill="none" d="M20.1,0 C27.6,-28.2 -11.8,-13.9 -4.3 -42.1"/><text font-family="OpenSansCondensedLight" font-size="14pt" fill="black" transform="translate(-30,-62.1)" text-anchor="middle"><tspan x="20" y="16.3">204</tspan></text><rect stroke-width="0" fill="none" width="238.6" transform="translate(-79.6,108.4)"/><text font-family="OpenSansCondensedLight" font-size="14pt" fill="black" transform="translate(-79.6,108.4)" text-anchor="middle"><tspan x="119.3" y="16.8">SERVER</tspan></text><path stroke="#000000" fill="none" transform="translate(-79.6,108.4)" d="M 0 0"/></g><g transform="translate(224,348)"><g><g>
<path d="M42.9,0c-9.3,0,-17.2,5.5,-20,13.2C10.1,14.6,0,24.7,0,37.2c0,13.3,11.6,24.2,25.7,24.2c0.7,0,1.5,0,2.2,-0.2c2.5,7.9,10.1,13.7,19.5,13.7c7.6,0,14.4,-4.1,17.7,-10c3.5,3.5,8.6,5.6,14.2,5.6c8.7,0,16.2,-5.3,18.9,-12.6c0.2,0,0.2,0,0.4,0c11.7,0,21.2,-8.9,21.2,-20s-9.5,-20,-21.3,-20c-2.3,0,-4.3,0.4,-6.1,0.9c-1.9,-7.5,-9.1,-13.2,-17.7,-13.2c-5,0,-9.5,1.9,-12.9,5.1C58.2,4.4,51.1,0,42.9,0L42.9,0z" stroke="#000000" stroke-dasharray="none" fill="#FFFFFF"/>
<rect x="10.9" y="23.3" width="96.1" height="28.4" fill="none"/>
<circle fill="none" cx="61.8" cy="10.7" r="0.1"/>
<circle fill="none" cx="78.7" cy="6" r="0.1"/>
<circle fill="none" cx="92.4" cy="18.7" r="0.1"/>
<circle fill="none" cx="119.8" cy="37.2" r="0.1"/>
<circle fill="none" cx="98.2" cy="57.9" r="0.1"/>
<circle fill="none" cx="80.8" cy="70.4" r="0.1"/>
<circle fill="none" cx="65.1" cy="64.9" r="0.1"/>
<circle fill="none" cx="46.8" cy="74.8" r="0.1"/>
<circle fill="none" cx="0" cy="37.2" r="0.1"/>
<circle fill="none" cx="27.9" cy="61.2" r="0.1"/>
<circle fill="none" cx="23" cy="13.2" r="0.1"/>
<circle fill="none" cx="42.9" cy="0" r="0.1"/>
</g></g><rect stroke="none" stroke-width="0" fill="#FFFFFF" x="0" y="0" width="0" height="0" transform="translate(119.7,37.1)"/><path stroke="#000000" fill="none" d=""/><text font-family="OpenSansCondensedLight" font-size="14pt" fill="black" transform="translate(119.7,37.1)"/><rect stroke-width="0" fill="none" width="96.1" height="28.4" transform="translate(10.9,23.3)"/><text font-family="OpenSansCondensedLight" font-size="14pt" fill="black" transform="translate(10.9,23.3)" text-anchor="middle"><tspan x="48.1" y="10">NETWORK</tspan><tspan x="48.1" y="31">206</tspan></text><path stroke="#000000" fill="none" transform="translate(10.9,23.3)" d="M 34.1 33 62.1 33"/></g><g transform="translate(419,154)"><g><g>
<g stroke="#000000" stroke-dasharray="none" fill="#FFFFFF">
    <ellipse cx="35.6" cy="21.8" rx="4.7" ry="4.7"/>
    <polygon points="71.4,171.1 35.6,186.9 0,171.1 35.6,26.5"/>
</g>
<g fill="none" stroke="#000000" stroke-dasharray="none">
    <line x1="35.6" y1="26.5" x2="35.6" y2="186.9"/>
    <ellipse cx="35.6" cy="21.8" rx="4.7" ry="4.7"/>
    <line x1="35.6" y1="26.5" x2="0" y2="171.1"/>
    <line x1="35.6" y1="26.5" x2="71.4" y2="171.1"/>
    <polygon points="35.6,53.6 29.6,50.7 35.6,47.8 41.5,50.8"/>
    <polygon points="35.6,61.5 27.8,57.9 35.6,54.1 43.3,58.1"/>
    <polygon points="35.6,71.9 25.6,67.1 35.6,62.4 45.6,67.3"/>
    <polygon points="35.6,84.9 22.6,79.2 35.6,72.9 48.6,79.4"/>
    <polygon points="35.6,102.1 18.9,94.5 35.6,86.4 52.3,94.6"/>
    <polygon points="35.6,123.6 14.1,114 35.6,103.7 57.1,113.8"/>
    <polygon points="35.6,151.5 7.9,139.1 35.6,125.9 63.3,138.7"/>
    <polygon points="35.6,186.9 0,171.1 35.6,154.4 71.4,171.1"/>
    <path d="M45.5,41.3c6.8,-3.8,11.5,-11,11.5,-19.3C57,9.9,47.4,0,35.6,0S14,9.9,14,21.9c0,8.5,4.7,15.9,11.5,19.3"/>
    <path d="M44,34.5c4,-2.9,6.6,-7.2,6.6,-12.6c0,-8.3,-6.6,-15.3,-15,-15.3S20.5,13.7,20.5,21.9c0,5.4,2.9,9.9,6.8,12.6"/>
    <path d="M42.4,28.3c1.5,-1.6,2.5,-3.8,2.5,-6.3c0,-5.1,-4,-9.2,-9,-9.2S26.5,16.8,26.5,21.9c0,2.5,0.9,4.7,2.5,6.7"/>
</g>
<rect x="4.4" y="68.5" width="64.2" height="63.5" fill="none"/>
<circle fill="none" cx="35.4" cy="0" r="0.1"/>
<circle fill="none" cx="57" cy="21.9" r="0.1"/>
<circle fill="none" cx="43.3" cy="58.1" r="0.1"/>
<circle fill="none" cx="52.3" cy="94.6" r="0.1"/>
<circle fill="none" cx="63.3" cy="138.7" r="0.1"/>
<circle fill="none" cx="71.4" cy="171.1" r="0.1"/>
<circle fill="none" cx="35.6" cy="186.9" r="0.1"/>
<circle fill="none" cx="0" cy="171.1" r="0.1"/>
<circle fill="none" cx="7.9" cy="139.1" r="0.1"/>
<circle fill="none" cx="18.9" cy="94.3" r="0.1"/>
<circle fill="none" cx="27.8" cy="57.9" r="0.1"/>
<circle fill="none" cx="14" cy="21.9" r="0.1"/>
</g></g><rect stroke="none" stroke-width="1" fill="#FFFFFF" x="0" y="0" width="40" height="20" transform="translate(79.3,-30.6)"/><path stroke="#000000" fill="none" d="M57,21.9 C84.5,21.9 61.8,-10.5 89.4 -10.6"/><text font-family="OpenSansCondensedLight" font-size="14pt" fill="black" transform="translate(79.3,-30.6)" text-anchor="middle"><tspan x="20" y="16.3">208</tspan></text><rect stroke-width="0" fill="none" width="214.7" transform="translate(-71.7,197)"/><text font-family="OpenSansCondensedLight" font-size="14pt" fill="black" transform="translate(-71.7,197)" text-anchor="middle"><tspan x="107.3" y="16.8">CELL TOWER</tspan></text><path stroke="#000000" fill="none" transform="translate(-71.7,197)" d="M 0 0"/></g><g transform="translate(478,461)"><g><g>
<g stroke="#000000" stroke-dasharray="none" fill="#FFFFFF">
    <path d="M8,0h30.2c4.3,0,8,3.4,8,7.9v80.2c0,4.3,-3.5,7.9,-8,7.9H8C3.7,96,0,92.6,0,88.1V7.9C0,3.4,3.5,0,8,0z"/>
    <path d="M16.9,6.3c0.4,0,0.8,0.2,0.8,0.8c0,0.4,-0.4,0.8,-0.8,0.8c-0.6,0,-1,-0.4,-1,-0.8C15.9,6.5,16.3,6.3,16.9,6.3"/>
    <path d="M29.2,6.3c0.4,0,0.8,0.4,0.8,0.8c0,0.4,-0.4,0.8,-0.8,0.8h-8.8c-0.4,0,-0.8,-0.4,-0.8,-0.8s0.4,-0.8,0.8,-0.8L29.2,6.3"/>
    <path d="M23,85.3c2.1,0,3.7,1.6,3.7,3.6s-1.6,3.6,-3.7,3.6s-3.7,-1.6,-3.7,-3.6C19.4,86.9,21,85.3,23,85.3z"/>
    <path d="M3.1,81.8V13.3h39.8v68.5H3.1L3.1,81.8z"/>
</g>
<rect x="5.6" y="18.9" width="34.9" height="58.1" fill="none"/>
<circle fill="none" cx="23" cy="0" r="0.1"/>
<circle fill="none" cx="34.4" cy="0" r="0.1"/>
<circle fill="none" cx="46.1" cy="24.2" r="0.1"/>
<circle fill="none" cx="46.1" cy="48" r="0.1"/>
<circle fill="none" cx="46.1" cy="71.8" r="0.1"/>
<circle fill="none" cx="34.4" cy="96" r="0.1"/>
<circle fill="none" cx="23" cy="96" r="0.1"/>
<circle fill="none" cx="11.7" cy="96" r="0.1"/>
<circle fill="none" cx="0" cy="71.8" r="0.1"/>
<circle fill="none" cx="0" cy="48" r="0.1"/>
<circle fill="none" cx="0" cy="24.2" r="0.1"/>
<circle fill="none" cx="11.7" cy="0" r="0.1"/>
</g></g><rect stroke="none" stroke-width="1" fill="#FFFFFF" x="0" y="0" width="40" height="20" transform="translate(86,37.9)"/><path stroke="#000000" fill="none" d="M46.1,48 C63.1,64.9 69,31 86 47.9"/><text font-family="OpenSansCondensedLight" font-size="14pt" fill="black" transform="translate(86,37.9)" text-anchor="middle"><tspan x="20" y="16.3">210</tspan></text><rect stroke-width="0" fill="none" width="138.9" transform="translate(-46.4,106.1)"/><text font-family="OpenSansCondensedLight" font-size="14pt" fill="black" transform="translate(-46.4,106.1)" text-anchor="middle"><tspan x="69.4" y="16.8">MOBILE DEVICE</tspan></text><path stroke="#000000" fill="none" transform="translate(-46.4,106.1)" d="M 0 0"/></g><g transform="translate(261,502)"><g transform="rotate(270,32.2,56.7)"><g>
<g fill="#FFFFFF">
    <path d="M5.1,47.7V0H0v113.4h5.1V65.7c5.1,0,9.2,-4,9.2,-9S10.3,47.7,5.1,47.7z"/>
    <g>
        <path d="M24.4,55.8c0,13.6,4.7,26,12.7,35.7l26.4,-25.1l0.9,-21.4L35.9,21.7C28.7,31.1,24.4,42.9,24.4,55.8z"/>
    </g>
</g>
<g stroke="#000000" stroke-dasharray="none" fill="#FFFFFF">
    <path stroke-linejoin="round" d="M37.1,91.5c-8,-9.7,-12.7,-22.1,-12.7,-35.7c0,-12.9,4.2,-24.7,11.5,-34.1"/>
    <path stroke-linejoin="round" d="M5.1,65.7c5.1,0,9.2,-4,9.2,-9s-4.1,-9,-9.2,-9V65.7z"/>
    <path d="M0,0h5.1v113.4H0V0z"/>
    <path stroke-linejoin="round" d="M44.1,85.6c-6.9,-7.9,-11.2,-18.4,-11.2,-29.6c0,-10.8,3.8,-20.6,10.1,-28.4"/>
    <path stroke-linejoin="round" d="M51,79c-5.7,-6,-9.2,-14.1,-9.2,-23c0,-8.7,3.3,-16.6,8.8,-22.6"/>
    <path stroke-linejoin="round" d="M57.5,73.3c-5,-4.2,-8.1,-10.5,-8.1,-17.5s3.2,-13.3,8.1,-17.5"/>
    <path stroke-linejoin="round" d="M63.5,66.4c-3.6,-2.1,-6,-6,-6,-10.5c0,-4.8,2.9,-9,6.9,-10.9"/>
</g>
<rect x="7.2" y="18.3" fill="none" width="49.3" height="76.4"/>
<circle fill="none" cx="35.9" cy="21.7" r="0.1"/>
<circle fill="none" cx="50.6" cy="33.4" r="0.1"/>
<circle fill="none" cx="64.4" cy="45" r="0.1"/>
<circle fill="none" cx="57.5" cy="55.7" r="0.1"/>
<circle fill="none" cx="63.5" cy="66.4" r="0.1"/>
<circle fill="none" cx="51" cy="79" r="0.1"/>
<circle fill="none" cx="37.1" cy="91.6" r="0.1"/>
<circle fill="none" cx="2.6" cy="113.4" r="0.1"/>
<circle fill="none" cx="0" cy="87.8" r="0.1"/>
<circle fill="none" cx="0" cy="56.5" r="0.1"/>
<circle fill="none" cx="0" cy="26.2" r="0.1"/>
<circle fill="none" cx="2.6" cy="0" r="0.1"/>
</g></g><rect stroke="none" stroke-width="1" fill="#FFFFFF" x="0" y="0" width="40" height="20" transform="translate(73.2,130.8)"/><path stroke="#000000" fill="none" d="M63.3,88.9 C55.8,116.9 95,102.8 87.5 130.8"/><text font-family="OpenSansCondensedLight" font-size="14pt" fill="black" transform="translate(73.2,130.8)" text-anchor="middle"><tspan x="20" y="16.3">212</tspan></text><rect stroke-width="0" fill="none" width="340.7" transform="translate(-138.2,99)"/><text font-family="OpenSansCondensedLight" font-size="14pt" fill="black" transform="translate(-138.2,99)" text-anchor="middle"><tspan x="170.4" y="16.8">WIFI</tspan></text><path stroke="#000000" fill="none" transform="translate(-138.2,99)" d="M 0 0"/></g><g transform="translate(70,467)"><g><g>
<g stroke="#000000" stroke-dasharray="none" fill="#FFFFFF">
    <path d="M8,0h30.2c4.3,0,8,3.4,8,7.9v80.2c0,4.3,-3.5,7.9,-8,7.9H8C3.7,96,0,92.6,0,88.1V7.9C0,3.4,3.5,0,8,0z"/>
    <path d="M16.9,6.3c0.4,0,0.8,0.2,0.8,0.8c0,0.4,-0.4,0.8,-0.8,0.8c-0.6,0,-1,-0.4,-1,-0.8C15.9,6.5,16.3,6.3,16.9,6.3"/>
    <path d="M29.2,6.3c0.4,0,0.8,0.4,0.8,0.8c0,0.4,-0.4,0.8,-0.8,0.8h-8.8c-0.4,0,-0.8,-0.4,-0.8,-0.8s0.4,-0.8,0.8,-0.8L29.2,6.3"/>
    <path d="M23,85.3c2.1,0,3.7,1.6,3.7,3.6s-1.6,3.6,-3.7,3.6s-3.7,-1.6,-3.7,-3.6C19.4,86.9,21,85.3,23,85.3z"/>
    <path d="M3.1,81.8V13.3h39.8v68.5H3.1L3.1,81.8z"/>
</g>
<rect x="5.6" y="18.9" width="34.9" height="58.1" fill="none"/>
<circle fill="none" cx="23" cy="0" r="0.1"/>
<circle fill="none" cx="34.4" cy="0" r="0.1"/>
<circle fill="none" cx="46.1" cy="24.2" r="0.1"/>
<circle fill="none" cx="46.1" cy="48" r="0.1"/>
<circle fill="none" cx="46.1" cy="71.8" r="0.1"/>
<circle fill="none" cx="34.4" cy="96" r="0.1"/>
<circle fill="none" cx="23" cy="96" r="0.1"/>
<circle fill="none" cx="11.7" cy="96" r="0.1"/>
<circle fill="none" cx="0" cy="71.8" r="0.1"/>
<circle fill="none" cx="0" cy="48" r="0.1"/>
<circle fill="none" cx="0" cy="24.2" r="0.1"/>
<circle fill="none" cx="11.7" cy="0" r="0.1"/>
</g></g><rect stroke="none" stroke-width="1" fill="#FFFFFF" x="0" y="0" width="40" height="20" transform="translate(-72.1,91.7)"/><path stroke="#000000" fill="none" d="M0,71.8 C-23.1,65.5 -11.5,97.9 -34.6 91.7"/><text font-family="OpenSansCondensedLight" font-size="14pt" fill="black" transform="translate(-72.1,91.7)" text-anchor="middle"><tspan x="20" y="16.3">214</tspan></text><rect stroke-width="0" fill="none" width="138.9" transform="translate(-46.4,106.1)"/><text font-family="OpenSansCondensedLight" font-size="14pt" fill="black" transform="translate(-46.4,106.1)" text-anchor="middle"><tspan x="69.4" y="16.8">MOBILE DEVICE</tspan></text><path stroke="#000000" fill="none" transform="translate(-46.4,106.1)" d="M 0 0"/></g><g><path stroke="black" stroke-dasharray="none" d="M 117 460 207 395" fill="none"/><path fill="black" stroke="black" d="" transform="translate(117,460) scale(1,1) rotate(-36.1)"/><path fill="black" stroke="black" d="M 8 0 L 0 4 L 8 8 z" transform="translate(215.4,393.2) scale(1,1) rotate(-216.1)"/><g><g label-idx="0" cursor="move" transform="translate(162, 427.5)"><rect fill="white" rx="3" ry="3" x="0" y="0" width="0" height="0"/><text text-anchor="middle" font-size="14pt" font-family="OpenSansCondensedLight" y="0.8em" display="none" xml:space="preserve" transform="translate(0,0)"/></g></g></g><g><path stroke="black" stroke-dasharray="none" d="M 232 414 143 479" fill="none"/><path fill="black" stroke="black" d="" transform="translate(232,414) scale(1,1) rotate(-216.4)"/><path fill="black" stroke="black" d="M 8 0 L 0 4 L 8 8 z" transform="translate(134.6,480.8) scale(1,1) rotate(-36.4)"/><g><g label-idx="0" cursor="move" transform="translate(187.5, 446.5)"><rect fill="white" rx="3" ry="3" x="0" y="0" width="0" height="0"/><text text-anchor="middle" font-size="14pt" font-family="OpenSansCondensedLight" y="0.8em" display="none" xml:space="preserve" transform="translate(0,0)"/></g></g></g><g><path stroke="black" stroke-dasharray="none" d="M 271 521 271 439" fill="none"/><path fill="black" stroke="black" d="" transform="translate(271,521) scale(1,1) rotate(-90)"/><path fill="black" stroke="black" d="M 8 0 L 0 4 L 8 8 z" transform="translate(275,431) scale(1,1) rotate(-270)"/><g><g label-idx="0" cursor="move" transform="translate(271, 480)"><rect fill="white" rx="3" ry="3" x="0" y="0" width="0" height="0"/><text text-anchor="middle" font-size="14pt" font-family="OpenSansCondensedLight" y="0.8em" display="none" xml:space="preserve" transform="translate(0,0)"/></g></g></g><g><path stroke="black" stroke-dasharray="none" d="M 303 429 303 516" fill="none"/><path fill="black" stroke="black" d="" transform="translate(303,429) scale(1,1) rotate(-270)"/><path fill="black" stroke="black" d="M 8 0 L 0 4 L 8 8 z" transform="translate(299,524) scale(1,1) rotate(-90)"/><g><g label-idx="0" cursor="move" transform="translate(303, 472.5)"><rect fill="white" rx="3" ry="3" x="0" y="0" width="0" height="0"/><text text-anchor="middle" font-size="14pt" font-family="OpenSansCondensedLight" y="0.8em" display="none" xml:space="preserve" transform="translate(0,0)"/></g></g></g><g><path stroke="black" stroke-dasharray="none" d="M 475 455 360 394" fill="none"/><path fill="black" stroke="black" d="" transform="translate(475,455) scale(1,1) rotate(-152)"/><path fill="black" stroke="black" d="M 8 0 L 0 4 L 8 8 z" transform="translate(354.9,386.5) scale(1,1) rotate(28)"/><g><g label-idx="0" cursor="move" transform="translate(417.5, 424.5)"><rect fill="white" rx="3" ry="3" x="0" y="0" width="0" height="0"/><text text-anchor="middle" font-size="14pt" font-family="OpenSansCondensedLight" y="0.8em" display="none" xml:space="preserve" transform="translate(0,0)"/></g></g></g><g><path stroke="black" stroke-dasharray="none" d="M 333 409 463 478" fill="none"/><path fill="black" stroke="black" d="" transform="translate(333,409) scale(1,1) rotate(28.1)"/><path fill="black" stroke="black" d="M 8 0 L 0 4 L 8 8 z" transform="translate(468.1,485.5) scale(1,1) rotate(-151.9)"/><g><g label-idx="0" cursor="move" transform="translate(398, 443.5)"><rect fill="white" rx="3" ry="3" x="0" y="0" width="0" height="0"/><text text-anchor="middle" font-size="14pt" font-family="OpenSansCondensedLight" y="0.8em" display="none" xml:space="preserve" transform="translate(0,0)"/></g></g></g><g><path stroke="black" stroke-dasharray="none" d="M 413 328 350 367" fill="none"/><path fill="black" stroke="black" d="" transform="translate(413,328) scale(1,1) rotate(-211.6)"/><path fill="black" stroke="black" d="M 8 0 L 0 4 L 8 8 z" transform="translate(340.9,367.6) scale(1,1) rotate(-31.6)"/><g><g label-idx="0" cursor="move" transform="translate(381.5, 347.5)"><rect fill="white" rx="3" ry="3" x="0" y="0" width="0" height="0"/><text text-anchor="middle" font-size="14pt" font-family="OpenSansCondensedLight" y="0.8em" display="none" xml:space="preserve" transform="translate(0,0)"/></g></g></g><g><path stroke="black" stroke-dasharray="none" d="M 332 361 411 313" fill="none"/><path fill="black" stroke="black" d="" transform="translate(332,361) scale(1,1) rotate(-31.2)"/><path fill="black" stroke="black" d="M 8 0 L 0 4 L 8 8 z" transform="translate(420.1,312.4) scale(1,1) rotate(-211.2)"/><g><g label-idx="0" cursor="move" transform="translate(371.5, 337)"><rect fill="white" rx="3" ry="3" x="0" y="0" width="0" height="0"/><text text-anchor="middle" font-size="14pt" font-family="OpenSansCondensedLight" y="0.8em" display="none" xml:space="preserve" transform="translate(0,0)"/></g></g></g><g><path stroke="black" stroke-dasharray="none" d="M 267 257 267 340" fill="none"/><path fill="black" stroke="black" d="" transform="translate(267,257) scale(1,1) rotate(-270)"/><path fill="black" stroke="black" d="M 8 0 L 0 4 L 8 8 z" transform="translate(263,348) scale(1,1) rotate(-90)"/><g><g label-idx="0" cursor="move" transform="translate(267, 298.5)"><rect fill="white" rx="3" ry="3" x="0" y="0" width="0" height="0"/><text text-anchor="middle" font-size="14pt" font-family="OpenSansCondensedLight" y="0.8em" display="none" xml:space="preserve" transform="translate(0,0)"/></g></g></g><g><path stroke="black" stroke-dasharray="none" d="M 295 350 295 265" fill="none"/><path fill="black" stroke="black" d="" transform="translate(295,350) scale(1,1) rotate(-90)"/><path fill="black" stroke="black" d="M 8 0 L 0 4 L 8 8 z" transform="translate(299,257) scale(1,1) rotate(-270)"/><g><g label-idx="0" cursor="move" transform="translate(295, 307.5)"><rect fill="white" rx="3" ry="3" x="0" y="0" width="0" height="0"/><text text-anchor="middle" font-size="14pt" font-family="OpenSansCondensedLight" y="0.8em" display="none" xml:space="preserve" transform="translate(0,0)"/></g></g></g><g><path stroke="black" stroke-dasharray="none" d="M 153 268 235 347" fill="none"/><path fill="black" stroke="black" d="" transform="translate(153,268) scale(1,1) rotate(44)"/><path fill="black" stroke="black" d="M 8 0 L 0 4 L 8 8 z" transform="translate(238.2,355.9) scale(1,1) rotate(-136)"/><g><g label-idx="0" cursor="move" transform="translate(194, 307.5)"><rect fill="white" rx="3" ry="3" x="0" y="0" width="0" height="0"/><text text-anchor="middle" font-size="14pt" font-family="OpenSansCondensedLight" y="0.8em" display="none" xml:space="preserve" transform="translate(0,0)"/></g></g></g><g><path stroke="black" stroke-dasharray="none" d="M 227 367 151 294" fill="none"/><path fill="black" stroke="black" d="" transform="translate(227,367) scale(1,1) rotate(-136.1)"/><path fill="black" stroke="black" d="M 8 0 L 0 4 L 8 8 z" transform="translate(147.8,285.1) scale(1,1) rotate(43.9)"/><g><g label-idx="0" cursor="move" transform="translate(189, 330.5)"><rect fill="white" rx="3" ry="3" x="0" y="0" width="0" height="0"/><text text-anchor="middle" font-size="14pt" font-family="OpenSansCondensedLight" y="0.8em" display="none" xml:space="preserve" transform="translate(0,0)"/></g></g></g><g><path stroke="black" stroke-dasharray="none" d="M 511 458 495 380" fill="none"/><path fill="black" stroke="black" d="" transform="translate(511,458) scale(1,1) rotate(-101.8)"/><path fill="black" stroke="black" d="M 8 0 L 0 4 L 8 8 z" transform="translate(496.9,371.2) scale(1,1) rotate(78.2)"/><g><g label-idx="0" cursor="move" transform="translate(503, 419)"><rect fill="white" rx="3" ry="3" x="0" y="0" width="0" height="0"/><text text-anchor="middle" font-size="14pt" font-family="OpenSansCondensedLight" y="0.8em" display="none" xml:space="preserve" transform="translate(0,0)"/></g></g></g><g><path stroke="black" stroke-dasharray="none" d="M 473 375 490 450" fill="none"/><path fill="black" stroke="black" d="" transform="translate(473,375) scale(1,1) rotate(77.1)"/><path fill="black" stroke="black" d="M 8 0 L 0 4 L 8 8 z" transform="translate(488.1,458.9) scale(1,1) rotate(-102.9)"/><g><g label-idx="0" cursor="move" transform="translate(481.5, 412.5)"><rect fill="white" rx="3" ry="3" x="0" y="0" width="0" height="0"/><text text-anchor="middle" font-size="14pt" font-family="OpenSansCondensedLight" y="0.8em" display="none" xml:space="preserve" transform="translate(0,0)"/></g></g></g><g transform="translate(533,204)"><g transform="rotate(90,56.7,52.4)"><g>
<g>
    <path d="M66.1,84.5l-0.1,-1.8c-2.5,0.3,-4.6,-0,-6,-1.2c-4.5,-3.4,-1.2,-13,6.9,-20.8s18.9,-11.5,23.2,-8c1.4,1.1,2.1,2.9,2,5l2.1,-0.1c0,-2.7,-0.8,-4.9,-2.7,-6.3c-2.4,-1.8,-6,-2.2,-10,-1.3c0,0,-3.5,0.7,-8,3l-8.7,-6.7l2.4,-2.3l-1.8,-1.4l-2.4,2.3l-5.7,-4.4l-2.3,2.3l-1.8,-1.4l-9.7,9.3l1.8,1.4l-2.3,2.3l5.7,4.4l-2.4,2.3l1.8,1.4l2.4,-2.3l8.6,6.6c-2.4,4.3,-2.8,7.5,-2.8,7.5c-0.7,3.6,-0.1,6.8,2.4,8.8C60.5,84.3,63.2,84.8,66.1,84.5z"/>
    <path d="M83.3,72.3L72.6,64.1l-0.9,0.8l10.7,8.3l-14.5,0.6l0.1,1.2l16.8,-0.8l-1.2,-14.4l-1.4,0.1L83.3,72.3z"/>
    <g>
        <path d="M94.1,72.6c0,-0.6,-0.6,-1.1,-1.2,-1.1c-0.7,0,-1.2,0.5,-1.2,1c-0,2,-1,3.8,-2.5,5.1c-1.5,1.2,-3.6,2.1,-5.9,2.1c-0.7,0,-1.2,0.5,-1.2,1c0,0.3,0.1,0.5,0.4,0.7c0.2,0.2,0.5,0.3,0.9,0.3c3.1,0,5.8,-1,7.8,-2.7C92.8,77.4,94.1,75.1,94.1,72.6L94.1,72.6z"/>
        <path d="M99.4,72.2c0,-0.6,-0.6,-1.1,-1.2,-1.1c-0.7,0,-1.2,0.5,-1.2,1c-0,3.4,-1.7,6.3,-4.2,8.5c-2.6,2.2,-6.1,3.5,-10,3.5c-0.7,0,-1.2,0.5,-1.2,1c0,0.3,0.1,0.5,0.4,0.7s0.5,0.3,0.9,0.3c4.5,0,8.7,-1.5,11.8,-4.1C97.5,79.7,99.4,76.2,99.4,72.2L99.4,72.2z"/>
    </g>
</g>
<g stroke="#000000" stroke-dasharray="none" fill="#FFFFFF">
    <path d="M113.4,17.6l-11.9,11.5l-11.4,-8.8l11.9,-11.5L113.4,17.6z"/>
    <path d="M101.5,29l-11.9,11.5L78.2,31.7l11.9,-11.5L101.5,29z"/>
    <path d="M89.6,40.5l-11.9,11.5l-11.4,-8.8l11.9,-11.5L89.6,40.5z"/>
    <path d="M102,8.8l-11.9,11.5l-11.4,-8.8l11.9,-11.5L102,8.8z"/>
    <path d="M90.1,20.2l-11.9,11.5l-11.4,-8.8l11.9,-11.5L90.1,20.2z"/>
    <path d="M78.2,31.7l-11.9,11.5l-11.4,-8.8l11.9,-11.5L78.2,31.7z"/>
    <path d="M58.5,70.4l-11.9,11.5L35.2,73.1l11.9,-11.5L58.5,70.4z"/>
    <path d="M46.6,81.9l-11.9,11.5l-11.4,-8.8l11.9,-11.5L46.6,81.9z"/>
    <path d="M34.7,93.3l-11.9,11.5l-11.4,-8.8l11.9,-11.5L34.7,93.3z"/>
    <path d="M47.1,61.6l-11.9,11.5l-11.4,-8.8l11.9,-11.5L47.1,61.6z"/>
    <path d="M35.2,73.1l-11.9,11.5L11.9,75.7l11.9,-11.5L35.2,73.1z"/>
    <path d="M23.3,84.5l-11.9,11.5L0,87.2l11.9,-11.5L23.3,84.5z"/>
</g>
<rect x="21.6" y="10.6" fill="none" width="70.6" height="84.1"/>
<circle fill="none" cx="107.5" cy="13.2" r="0.1"/>
<circle fill="none" cx="96.8" cy="33.4" r="0.1"/>
<circle fill="none" cx="92.3" cy="52" r="0.1"/>
<circle fill="none" cx="94.2" cy="82.4" r="0.1"/>
<circle fill="none" cx="58.1" cy="82.5" r="0.1"/>
<circle fill="none" cx="39.9" cy="88.4" r="0.1"/>
<circle fill="none" cx="17.6" cy="100.7" r="0.1"/>
<circle fill="none" cx="6.4" cy="92.1" r="0.1"/>
<circle fill="none" cx="16.2" cy="71.5" r="0.1"/>
<circle fill="none" cx="48" cy="46" r="0.1"/>
<circle fill="none" cx="73.3" cy="16.6" r="0.1"/>
<circle fill="none" cx="96.1" cy="4.3" r="0.1"/>
</g></g><rect stroke="none" stroke-width="1" fill="#FFFFFF" x="0" y="0" width="40" height="20" transform="translate(67,129.9)"/><path stroke="#000000" fill="none" d="M57.1,88 C49.6,116 88.8,101.9 81.3 129.9"/><text font-family="OpenSansCondensedLight" font-size="14pt" fill="black" transform="translate(67,129.9)" text-anchor="middle"><tspan x="20" y="16.3">216</tspan></text><rect stroke-width="0" fill="none" width="314.3" transform="translate(-100.5,-14.3)"/><text font-family="OpenSansCondensedLight" font-size="14pt" fill="black" transform="translate(-100.5,-14.3)" text-anchor="middle"><tspan x="157.2" y="-4.2">GPS SATELLITE</tspan></text><path stroke="#000000" fill="none" transform="translate(-100.5,-14.3)" d="M 0 0"/></g><g><path stroke="black" stroke-dasharray="none" d="M 571 315 527 445" fill="none"/><path fill="black" stroke="black" d="" transform="translate(571,315) scale(1,1) rotate(-251.2)"/><path fill="black" stroke="black" d="M 8 0 L 0 4 L 8 8 z" transform="translate(520.2,451.7) scale(1,1) rotate(-71.2)"/><g><g label-idx="0" cursor="move" transform="translate(549, 380)"><rect fill="white" rx="3" ry="3" x="0" y="0" width="0" height="0"/><text text-anchor="middle" font-size="14pt" font-family="OpenSansCondensedLight" y="0.8em" display="none" xml:space="preserve" transform="translate(0,0)"/></g></g></g></g><defs/></svg>